<svg xmlns="http://www.w3.org/2000/svg" xmlns:xlink="http://www.w3.org/1999/xlink" width="217.764" height="216.242" viewBox="0 0 217.764 216.242">
  <defs>
    <filter id="Rectangle_27" x="0" y="0" width="217.764" height="216.242" filterUnits="userSpaceOnUse">
      <feOffset dy="18" input="SourceAlpha"/>
      <feGaussianBlur stdDeviation="16" result="blur"/>
      <feFlood flood-color="#12171b"/>
      <feComposite operator="in" in2="blur"/>
      <feComposite in="SourceGraphic"/>
    </filter>
  </defs>
  <g transform="matrix(1, 0, 0, 1, 0, 0)" filter="url(#Rectangle_27)" style="mix-blend-mode: soft-light;isolation: isolate">
    <path id="Rectangle_27-2" data-name="Rectangle 27" d="M1026.4,3413.712H1014.6l-2.734-5.025a56.36,56.36,0,0,1-12.247-3.313l-4.444,3.2-10.224-5.83.144-5.83a56.116,56.116,0,0,1-8.64-8.665l-5.723.453-5.9-10.1,3.19-5.073a54.571,54.571,0,0,1-3-11.392l-5.4-2.716v-11.66l5.526-2.78a54.573,54.573,0,0,1,3.046-11.048l-3.367-5.354,5.9-10.1,6.286.5a56.238,56.238,0,0,1,8.095-7.986l-.161-6.554,10.224-5.83,5.109,3.677a56.42,56.42,0,0,1,11.142-2.986l3.174-5.831H1026.4l2.45,5.72a56.393,56.393,0,0,1,11.438,2.936l5.536-3.516,10.225,5.83-.783,6.06a56.193,56.193,0,0,1,8.678,8.433l6.325-.452,5.9,10.1-3.6,4.768a54.558,54.558,0,0,1,3.334,11.959l5.473,2.455v11.66l-5.353,2.4a54.513,54.513,0,0,1-3.26,12.267l3.408,4.512-5.9,10.1-5.757-.411a56.117,56.117,0,0,1-9.159,9.062l.7,5.391-10.225,5.831-4.809-3.054a56.409,56.409,0,0,1-12.5,3.26l-2.112,4.933Zm-5.494-80.7c-11.563,0-20.971,9.972-20.971,22.23s9.407,22.23,20.971,22.23,20.97-9.973,20.97-22.23S1032.473,3333.01,1020.91,3333.01Z" transform="translate(-911.62 -3263.47)" fill="#eae8e5" opacity="0.38"/>
  </g>
</svg>
