<svg xmlns="http://www.w3.org/2000/svg" width="13" height="21" viewBox="0 0 13 21">
  <g id="Rectangle_31" data-name="Rectangle 31" transform="translate(-549 -4334)" fill="none">
    <path d="M556,4355v-1h6v1Zm-7,0v-1h6v1Zm7-2v-1h6v1Zm-7,0v-1h6v1Zm0-2v-1h13v1Zm7-2v-7h6v7Zm-7,0v-1h6v1Zm0-2v-1h6v1Zm0-2v-1h6v1Zm0-2v-1h6v1Zm0-2v-2h13v2Zm0-3v-4h13v4Z" stroke="none"/>
    <path d="M 560.9995727539063 4347.99951171875 L 560.9995727539063 4343.00048828125 L 557.0003051757813 4343.00048828125 L 557.0003051757813 4347.99951171875 L 560.9995727539063 4347.99951171875 M 560.9995727539063 4337 L 560.9995727539063 4335 L 549.9998779296875 4335 L 549.9998779296875 4337 L 560.9995727539063 4337 M 561.9995727539063 4355 L 556.0003051757813 4355 L 556.0003051757813 4354 L 561.9995727539063 4354 L 561.9995727539063 4355 Z M 555.000244140625 4355 L 548.9998779296875 4355 L 548.9998779296875 4354 L 555.000244140625 4354 L 555.000244140625 4355 Z M 561.9995727539063 4353 L 556.0003051757813 4353 L 556.0003051757813 4352 L 561.9995727539063 4352 L 561.9995727539063 4353 Z M 555.000244140625 4353 L 548.9998779296875 4353 L 548.9998779296875 4352 L 555.000244140625 4352 L 555.000244140625 4353 Z M 561.9995727539063 4351 L 548.9998779296875 4351 L 548.9998779296875 4350 L 561.9995727539063 4350 L 561.9995727539063 4351 Z M 561.9995727539063 4348.99951171875 L 556.0003051757813 4348.99951171875 L 556.0003051757813 4342.00048828125 L 561.9995727539063 4342.00048828125 L 561.9995727539063 4348.99951171875 Z M 555.000244140625 4348.99951171875 L 548.9998779296875 4348.99951171875 L 548.9998779296875 4347.99951171875 L 555.000244140625 4347.99951171875 L 555.000244140625 4348.99951171875 Z M 555.000244140625 4346.99951171875 L 548.9998779296875 4346.99951171875 L 548.9998779296875 4345.99951171875 L 555.000244140625 4345.99951171875 L 555.000244140625 4346.99951171875 Z M 555.000244140625 4344.99951171875 L 548.9998779296875 4344.99951171875 L 548.9998779296875 4343.99951171875 L 555.000244140625 4343.99951171875 L 555.000244140625 4344.99951171875 Z M 555.000244140625 4343.00048828125 L 548.9998779296875 4343.00048828125 L 548.9998779296875 4342.00048828125 L 555.000244140625 4342.00048828125 L 555.000244140625 4343.00048828125 Z M 561.9995727539063 4341.00048828125 L 548.9998779296875 4341.00048828125 L 548.9998779296875 4339.00048828125 L 561.9995727539063 4339.00048828125 L 561.9995727539063 4341.00048828125 Z M 561.9995727539063 4338 L 548.9998779296875 4338 L 548.9998779296875 4334 L 561.9995727539063 4334 L 561.9995727539063 4338 Z" stroke="none" fill="#bb9c66"/>
  </g>
</svg>
