<svg xmlns="http://www.w3.org/2000/svg" width="50" height="50" viewBox="0 0 50 50"><g transform="translate(-997 -4207)"><g transform="translate(997 4207)" fill="none" stroke="#bb9c66" stroke-width="1"><circle cx="25" cy="25" r="25" stroke="none"/><circle cx="25" cy="25" r="24.5" fill="none"/></g><g fill="none"><path d="M1022,4242a10,10,0,0,1,0-20v1a9,9,0,1,0,6.364,2.635l.707-.707A10,10,0,0,1,1022,4242Z" stroke="none"/><path d="M 1021.999816894531 4242.00048828125 C 1016.485900878906 4242.00048828125 1012 4237.5146484375 1012 4232.00048828125 C 1012 4226.48583984375 1016.485900878906 4221.99951171875 1021.999816894531 4221.99951171875 L 1021.999816894531 4223.00048828125 C 1017.035827636719 4223.00146484375 1012.999694824219 4227.03857421875 1012.999694824219 4232.00048828125 C 1012.999694824219 4236.96240234375 1017.037170410156 4240.99951171875 1021.999816894531 4240.99951171875 C 1026.962524414063 4240.99951171875 1031 4236.96240234375 1031 4232.00048828125 C 1031 4229.59716796875 1030.063842773438 4227.33642578125 1028.364013671875 4225.63525390625 L 1029.070678710938 4224.9287109375 C 1030.9599609375 4226.81787109375 1031.999633789063 4229.32958984375 1031.999633789063 4232.00048828125 C 1031.999633789063 4237.5146484375 1027.513793945313 4242.00048828125 1021.999816894531 4242.00048828125 Z" stroke="none" fill="#bb9c66"/></g><g fill="none"><path d="M1021,4230v-8h-8v-1h9v9Z" stroke="none"/><path d="M 1022.00048828125 4230.00048828125 L 1021.00048828125 4230.00048828125 L 1021.00048828125 4222 L 1013.000305175781 4222 L 1013.000305175781 4221 L 1022.00048828125 4221 L 1022.00048828125 4230.00048828125 Z" stroke="none" fill="#bb9c66"/></g></g></svg>