<svg xmlns="http://www.w3.org/2000/svg" xmlns:xlink="http://www.w3.org/1999/xlink" width="50" height="57.001" viewBox="0 0 50 57.001"><defs><linearGradient id="a" x1="0.75" y1="43.421" x2="0.75" y2="-55.824" gradientUnits="objectBoundingBox"><stop offset="0"/><stop offset="0.8"/><stop offset="0.855" stop-color="#fff"/><stop offset="1" stop-color="#fff"/></linearGradient><linearGradient id="e" x1="0.5" y1="1.08" x2="0.5" y2="-0.48" xlink:href="#a"/><clipPath id="g"><circle cx="22" cy="22" r="22" transform="translate(1000 3185)" fill="#1c242a"/></clipPath><clipPath id="h"><path d="M1022,3232a24.922,24.922,0,1,1,9.731-1.965A24.841,24.841,0,0,1,1022,3232Zm0-44a19,19,0,1,0,19,19A19.022,19.022,0,0,0,1022,3188Z" fill="#bb9c66"/></clipPath><linearGradient id="i" x1="0.847" y1="68.556" x2="0.847" y2="-88.583" gradientUnits="objectBoundingBox"><stop offset="0"/><stop offset="1" stop-color="#fff"/></linearGradient><linearGradient id="j" x1="0.5" y1="1" x2="0.5" gradientUnits="objectBoundingBox"><stop offset="0" stop-color="#d6d6d6"/><stop offset="1" stop-color="#ededed"/></linearGradient><filter id="k" x="9.5" y="14" width="31" height="31.5" filterUnits="userSpaceOnUse"><feOffset dy="5" input="SourceAlpha"/><feGaussianBlur stdDeviation="1.5" result="l"/><feFlood flood-opacity="0.749"/><feComposite operator="in" in2="l"/><feComposite in="SourceGraphic"/></filter><linearGradient id="m" x1="0.5" y1="1" x2="0.5" gradientUnits="objectBoundingBox"><stop offset="0" stop-color="#f0f0f0"/><stop offset="1" stop-color="#d3d3d3"/></linearGradient><filter id="n" x="20" y="20.001" width="10" height="11" filterUnits="userSpaceOnUse"><feOffset dy="-1" input="SourceAlpha"/><feGaussianBlur result="o"/><feFlood flood-color="#adadad"/><feComposite operator="in" in2="o"/><feComposite in="SourceGraphic"/></filter><clipPath id="q"><path d="M1003.255,3223.543a25.014,25.014,0,1,1,37.49,0,19.094,19.094,0,0,1-37.49,0Z" fill="none"/></clipPath><pattern id="r" preserveAspectRatio="none" width="100%" height="100%" viewBox="0 0 0 0"><image/></pattern><clipPath id="s"><circle cx="22" cy="22" r="22" transform="translate(14 27)" fill="#1c242a"/></clipPath><clipPath id="t"><path d="M36,74a24.922,24.922,0,1,1,9.731-1.965A24.844,24.844,0,0,1,36,74Zm0-44A19,19,0,1,0,55,49,19.021,19.021,0,0,0,36,30Z" fill="#bb9c66"/></clipPath><filter id="u" x="5.651" y="20" width="27.188" height="23.622" filterUnits="userSpaceOnUse"><feOffset dy="2" input="SourceAlpha"/><feGaussianBlur stdDeviation="2.5" result="v"/><feFlood/><feComposite operator="in" in2="v"/><feComposite in="SourceGraphic"/></filter><linearGradient id="w" x1="0.5" y1="1" x2="0.5" gradientUnits="objectBoundingBox"><stop offset="0" stop-color="#c6c9c9"/><stop offset="1" stop-color="#fff"/></linearGradient><filter id="x" x="6.5" y="10.5" width="37" height="28" filterUnits="userSpaceOnUse"><feOffset dy="2" input="SourceAlpha"/><feGaussianBlur stdDeviation="2.5" result="y"/><feFlood/><feComposite operator="in" in2="y"/><feComposite in="SourceGraphic"/></filter><linearGradient id="z" x1="0.5" y1="1.306" x2="0.5" y2="-0.861" xlink:href="#i"/></defs><g transform="translate(-997 -3182)"><ellipse cx="19" cy="18.5" rx="19" ry="18.5" transform="translate(1003 3202)"/><circle cx="22" cy="22" r="22" transform="translate(1000 3185)" fill="#1c242a"/><g clip-path="url(#g)"><circle cx="11" cy="11" r="11" transform="translate(1011 3183)" fill="#3e4f5b"/><path d="M1021,3228a25,25,0,0,1-25-24.833,26.009,26.009,0,0,0,50,0A25,25,0,0,1,1021,3228Z" fill="#3e4f5b" style="mix-blend-mode:multiply;isolation:isolate"/></g><path d="M1022,3232a24.922,24.922,0,1,1,9.731-1.965A24.841,24.841,0,0,1,1022,3232Zm0-44a19,19,0,1,0,19,19A19.022,19.022,0,0,0,1022,3188Z" fill="#bb9c66"/><g clip-path="url(#h)"><path d="M1003,3213c-1.318-6.765,3-13,3-13-.166-2.041,20.938-1.972,22-2s14.66,8,13,15-8.05,14-19,14S1004.319,3219.764,1003,3213Zm19-29c-21.157,0-25,23-25,23v-25h50v25S1043.157,3184,1022,3184Z" fill="#bb9c66" opacity="0.82" style="mix-blend-mode:screen;isolation:isolate"/><path d="M997,3232v-25s3.843,23,25,23,25-23,25-23v25Zm31-16c-1.062-.029-22.165.041-22-2,0,0-4.319-6.235-3-13s8.05-14,19-14,17.339,7,19,14-11.89,15-12.995,15Z" fill="#bb9c66" opacity="0.82" style="mix-blend-mode:multiply;isolation:isolate"/></g><path d="M999.752,3198.587h0a23.493,23.493,0,0,1,38.4-7.671,25.007,25.007,0,0,0-38.4,7.672Z" fill="#fff"/><path d="M1021.5,3228a23.425,23.425,0,0,1-16.651-6.917,25.008,25.008,0,0,0,38.409-7.69A23.507,23.507,0,0,1,1021.5,3228Z" fill="#fff"/><g opacity="0.569"><path d="M1023,3225h-2v-3.033c.323.021.659.033,1,.033s.67-.011,1-.033V3225Zm-4.693-.354h0l-1.93-.518.784-2.926a14.936,14.936,0,0,0,1.932.517l-.784,2.927Zm7.386,0h0l-.784-2.927a14.97,14.97,0,0,0,1.932-.516l.784,2.926-1.93.518Zm4.441-1.558h0l-1.514-2.623a15.051,15.051,0,0,0,1.731-1l1.516,2.626-1.732,1Zm-16.267,0h0l-1.732-1,1.516-2.626a15.029,15.029,0,0,0,1.731,1l-1.514,2.623Zm20.155-2.653h0l-2.144-2.144a15.136,15.136,0,0,0,1.414-1.415l2.144,2.145-1.413,1.414Zm-24.042,0h0l-1.413-1.414,2.144-2.145a15.156,15.156,0,0,0,1.414,1.414l-2.144,2.144Zm27.109-3.569h0l-2.625-1.516a15.013,15.013,0,0,0,1-1.732l2.625,1.515-1,1.731Zm-30.176,0h0l-1-1.731,2.625-1.515a15,15,0,0,0,1,1.732l-2.625,1.516Zm32.216-4.242h0l-2.925-.784a14.911,14.911,0,0,0,.516-1.933l2.928.784-.518,1.931Zm-34.256,0h0l-.517-1.931,2.928-.784a14.937,14.937,0,0,0,.517,1.933l-2.926.784ZM1040,3208h-3.033c.021-.327.033-.663.033-1s-.011-.669-.033-1H1040v2Zm-32.967,0H1004v-2h3.033c-.021.326-.033.662-.033,1s.011.668.033,1Zm29.685-3.908h0a14.943,14.943,0,0,0-.516-1.931l2.926-.784.518,1.931-2.927.784Zm-29.436,0h0l-2.927-.784.518-1.931,2.927.784a14.928,14.928,0,0,0-.516,1.931Zm28.182-3.71h0a15.012,15.012,0,0,0-1-1.73l2.626-1.516,1,1.731-2.624,1.515Zm-26.928,0h0l-2.624-1.515,1-1.731,2.626,1.516a15,15,0,0,0-1,1.73Zm2.174-3.257h0l-2.144-2.144,1.414-1.415,2.145,2.145a15.1,15.1,0,0,0-1.414,1.414Zm22.58,0h0a15.147,15.147,0,0,0-1.414-1.414l2.145-2.145,1.414,1.415-2.144,2.144Zm-2.94-2.586h0a15.019,15.019,0,0,0-1.73-1l1.515-2.625,1.733,1-1.516,2.625Zm-16.7,0h0l-1.516-2.625,1.732-1,1.515,2.625a15.049,15.049,0,0,0-1.731,1Zm13.19-1.739h0a14.873,14.873,0,0,0-1.931-.516l.785-2.928,1.931.517-.784,2.926Zm-9.681,0h0l-.784-2.926,1.931-.517.785,2.928a14.969,14.969,0,0,0-1.931.516Zm5.841-.765h0c-.33-.022-.666-.033-1-.033s-.671.011-1,.033V3189h2v3.032Z" fill="#8194a3"/><path d="M1021,3225v-3.033a15,15,0,0,1-1.908-.249l-.785,2.928-1.931-.518.784-2.926a14.888,14.888,0,0,1-1.778-.737l-1.515,2.624-1.732-1,1.516-2.626a15.076,15.076,0,0,1-1.526-1.173l-2.145,2.145-1.414-1.415,2.144-2.145a15.037,15.037,0,0,1-1.172-1.525l-2.626,1.516-1-1.732,2.625-1.515a14.913,14.913,0,0,1-.737-1.778l-2.927.784-.518-1.932,2.928-.784a15.015,15.015,0,0,1-.249-1.908H1004v-2h3.033a15.018,15.018,0,0,1,.249-1.908l-2.928-.784.518-1.931,2.927.784a14.922,14.922,0,0,1,.738-1.779l-2.625-1.516,1-1.731,2.626,1.516a15.072,15.072,0,0,1,1.172-1.526l-2.145-2.145,1.414-1.415,2.145,2.145a15.073,15.073,0,0,1,1.526-1.172l-1.516-2.626,1.732-1,1.515,2.625a14.934,14.934,0,0,1,1.778-.737l-.784-2.927,1.931-.517.785,2.928a15.039,15.039,0,0,1,1.908-.249V3189h2v3.033a15,15,0,0,1,1.908.249l.785-2.928,1.931.517-.784,2.927a14.9,14.9,0,0,1,1.778.737l1.515-2.625,1.733,1-1.516,2.626a15.042,15.042,0,0,1,1.526,1.172l2.145-2.145,1.414,1.415-2.145,2.145a15.066,15.066,0,0,1,1.172,1.526l2.626-1.516,1,1.731-2.625,1.516a14.922,14.922,0,0,1,.738,1.779l2.926-.784.518,1.931-2.928.784a15,15,0,0,1,.249,1.908H1040v2h-3.033a14.993,14.993,0,0,1-.249,1.908l2.928.784-.518,1.932-2.926-.784a14.9,14.9,0,0,1-.737,1.778l2.625,1.515-1,1.732-2.626-1.516a15.028,15.028,0,0,1-1.172,1.525l2.144,2.145-1.414,1.415-2.145-2.145a15.068,15.068,0,0,1-1.526,1.172l1.516,2.626-1.733,1-1.515-2.624a14.9,14.9,0,0,1-1.778.738l.784,2.926-1.931.518-.785-2.928a15.039,15.039,0,0,1-1.908.249V3225Z" opacity="0.33" fill="url(#i)" style="mix-blend-mode:overlay;isolation:isolate"/></g><g transform="matrix(1, 0, 0, 1, 997, 3182)" filter="url(#k)"><path d="M1030.185,3209.218a8.428,8.428,0,0,1-.83,2l1.691,2.292-2.536,2.536-2.292-1.691a8.428,8.428,0,0,1-2,.83l-.425,2.815h-3.586l-.425-2.815a8.424,8.424,0,0,1-2-.83l-2.292,1.691-2.536-2.536,1.691-2.292a8.426,8.426,0,0,1-.83-2l-2.815-.425v-3.586l2.815-.425a8.421,8.421,0,0,1,.83-2l-1.691-2.292,2.536-2.535,2.292,1.69a8.454,8.454,0,0,1,2-.83l.425-2.815h3.586l.425,2.815a8.457,8.457,0,0,1,2,.83l2.292-1.69,2.536,2.535-1.691,2.292a8.423,8.423,0,0,1,.83,2l2.815.425v3.586Zm-8.185-5.174a2.956,2.956,0,1,0,2.956,2.956A2.956,2.956,0,0,0,1022,3204.044Z" transform="translate(-997 -3182)" fill="url(#j)"/></g><g transform="matrix(1, 0, 0, 1, 997, 3182)" filter="url(#n)"><path d="M1022,3213a5,5,0,1,1,5-5A5.006,5.006,0,0,1,1022,3213Zm0-7.14a2.14,2.14,0,1,0,2.139,2.139A2.142,2.142,0,0,0,1022,3205.86Z" transform="translate(-997 -3182)" fill="url(#m)"/></g><g transform="translate(1016 3202)" fill="none" stroke="#707070" stroke-width="1" opacity="0.259"><circle cx="6" cy="6" r="6" stroke="none"/><circle cx="6" cy="6" r="5.5" fill="none"/></g><path d="M1003.255,3223.543a25.014,25.014,0,1,1,37.489,0,19.094,19.094,0,0,1-37.489,0Z" opacity="0.42" fill="url(#a)" style="mix-blend-mode:soft-light;isolation:isolate"/><g clip-path="url(#q)"><g transform="translate(986 3158)" opacity="0.231" style="mix-blend-mode:overlay;isolation:isolate"><rect fill="url(#r)"/><circle cx="22" cy="22" r="22" transform="translate(14 27)" fill="#1c242a"/><g clip-path="url(#s)"><circle cx="11" cy="11" r="11" transform="translate(25 25)" fill="#3e4f5b"/><path d="M35,70A25,25,0,0,1,10,45.167a26.009,26.009,0,0,0,50,0A25,25,0,0,1,35,70Z" fill="#3e4f5b" style="mix-blend-mode:multiply;isolation:isolate"/></g><path d="M36,74a24.922,24.922,0,1,1,9.731-1.965A24.844,24.844,0,0,1,36,74Zm0-44A19,19,0,1,0,55,49,19.021,19.021,0,0,0,36,30Z" fill="#bb9c66"/><g clip-path="url(#t)"><path d="M17,55c-1.319-6.764,3-13,3-13-.166-2.041,20.938-1.972,22-2s14.66,8,13,15S46.951,69,36,69,18.319,61.765,17,55ZM36,26C14.843,26,11,49,11,49V24H61V49S57.157,26,36,26Z" fill="#bb9c66" opacity="0.82" style="mix-blend-mode:screen;isolation:isolate"/><path d="M11,74V49s3.843,23,25,23S61,49,61,49V74ZM42,58c-1.063-.028-22.166.041-22-2,0,0-4.318-6.235-3-13s8.049-14,19-14,17.339,7,19,14S43.112,58,42.006,58Z" fill="#bb9c66" opacity="0.82" style="mix-blend-mode:multiply;isolation:isolate"/></g><path d="M13.75,40.589h0a23.493,23.493,0,0,1,38.4-7.671,25.007,25.007,0,0,0-38.4,7.672Z" fill="#fff"/><path d="M35.5,70a23.425,23.425,0,0,1-16.649-6.915A25.007,25.007,0,0,0,57.26,55.392,23.507,23.507,0,0,1,35.5,70Z" fill="#fff"/><g transform="matrix(1, 0, 0, 1, 11, 24)" filter="url(#u)"><path d="M36.339,50.331l-.547-.831L24.151,57.291l.556.831Z" transform="translate(-11 -24)" fill="#b6ccde"/></g><g transform="matrix(1, 0, 0, 1, 11, 24)" filter="url(#x)"><path d="M33,50c0-.03,0-.06,0-.091L25,47V45l8.644,3.143a3,3,0,0,1,3.918-.7L45,40l2,1-8.129,8.129A3,3,0,1,1,33,50Z" transform="translate(-11 -24)" fill="url(#w)"/></g><g opacity="0.569"><path d="M37,67H35V63.967c.327.021.663.033,1,.033s.669-.011,1-.033V67Zm2.693-.354h0l-.784-2.927a14.945,14.945,0,0,0,1.933-.517l.784,2.926-1.931.518Zm-7.385,0h0l-1.931-.518.784-2.926a14.942,14.942,0,0,0,1.933.517l-.784,2.927Zm11.827-1.557h0l-1.515-2.624a15.025,15.025,0,0,0,1.731-1l1.516,2.625-1.731,1Zm-16.268,0h0l-1.731-1,1.516-2.625a15.023,15.023,0,0,0,1.731,1l-1.515,2.624ZM48.02,62.435h0L45.876,60.29a15.138,15.138,0,0,0,1.414-1.414l2.145,2.145-1.414,1.413Zm-24.041,0h0l-1.414-1.413,2.145-2.145a15.137,15.137,0,0,0,1.414,1.414L23.98,62.434Zm27.109-3.568h0L48.463,57.35a15.036,15.036,0,0,0,1-1.731l2.624,1.515-1,1.732Zm-30.177,0h0l-1-1.732,2.624-1.515a15.038,15.038,0,0,0,1,1.731l-2.625,1.516Zm32.216-4.242h0L50.2,53.841a14.949,14.949,0,0,0,.516-1.932l2.927.784-.517,1.93Zm-34.256,0h0l-.517-1.93,2.927-.784a14.949,14.949,0,0,0,.516,1.932l-2.925.784ZM54,50H50.967c.022-.327.033-.663.033-1s-.011-.669-.033-1H54v2ZM21.033,50H18V48h3.033c-.021.326-.033.662-.033,1s.011.668.033,1Zm29.686-3.909h0a14.94,14.94,0,0,0-.516-1.931l2.926-.784.518,1.931-2.926.784Zm-29.437,0h0l-2.926-.784.517-1.931,2.926.784a14.937,14.937,0,0,0-.516,1.931Zm28.183-3.71h0a15.041,15.041,0,0,0-1-1.73l2.626-1.516,1,1.732-2.623,1.514Zm-26.929,0h0l-2.623-1.514,1-1.732,2.626,1.516a15.039,15.039,0,0,0-1,1.73ZM47.29,39.124h0a15.142,15.142,0,0,0-1.414-1.413l2.144-2.144,1.415,1.414-2.144,2.144Zm-22.581,0h0l-2.144-2.144,1.415-1.414,2.144,2.144a15.138,15.138,0,0,0-1.414,1.413Zm19.64-2.587h0a15.05,15.05,0,0,0-1.73-1l1.515-2.625,1.732,1L44.35,36.536Zm-16.7,0h0l-1.516-2.625,1.732-1,1.515,2.625a15.034,15.034,0,0,0-1.73,1ZM40.841,34.8h0a14.952,14.952,0,0,0-1.932-.516l.785-2.928,1.932.518L40.841,34.8Zm-9.682,0h0l-.784-2.925,1.932-.518.785,2.928a14.944,14.944,0,0,0-1.932.516ZM35,34.033h0V31h2v3.032c-.332-.021-.668-.032-1-.032s-.668.011-1,.033Z" fill="#8194a3"/><path d="M35,67V63.967a14.993,14.993,0,0,1-1.908-.249l-.785,2.928-1.932-.518.784-2.926a14.917,14.917,0,0,1-1.778-.737l-1.515,2.625-1.732-1,1.516-2.625a15.07,15.07,0,0,1-1.526-1.172L23.98,62.435l-1.415-1.414,2.145-2.145a15.068,15.068,0,0,1-1.172-1.526l-2.626,1.516-1-1.733,2.624-1.515a14.9,14.9,0,0,1-.737-1.778l-2.926.784-.517-1.931,2.927-.784A15,15,0,0,1,21.033,50H18V48h3.033a15.019,15.019,0,0,1,.249-1.909l-2.927-.784.517-1.931,2.926.784a14.9,14.9,0,0,1,.737-1.778l-2.624-1.515,1-1.733,2.626,1.516a15.069,15.069,0,0,1,1.172-1.526l-2.145-2.145,1.415-1.414,2.144,2.144a15.055,15.055,0,0,1,1.526-1.173l-1.516-2.626,1.732-1,1.515,2.625a14.917,14.917,0,0,1,1.778-.737l-.784-2.926,1.932-.518.785,2.928A14.993,14.993,0,0,1,35,34.033V31h2v3.033a15.016,15.016,0,0,1,1.908.249l.785-2.928,1.932.518L40.841,34.8a14.9,14.9,0,0,1,1.778.737l1.515-2.625,1.732,1L44.35,36.537a15.055,15.055,0,0,1,1.526,1.173l2.144-2.144,1.415,1.414L47.29,39.124a15.069,15.069,0,0,1,1.172,1.526l2.626-1.516,1,1.733-2.624,1.515a14.9,14.9,0,0,1,.737,1.778l2.926-.784.517,1.931-2.927.784A15.02,15.02,0,0,1,50.967,48H54v2H50.967a15,15,0,0,1-.249,1.908l2.927.784-.517,1.931L50.2,53.841a14.9,14.9,0,0,1-.737,1.778l2.624,1.515-1,1.733L48.463,57.35a15.068,15.068,0,0,1-1.172,1.526l2.145,2.145L48.02,62.435,45.876,60.29a15.07,15.07,0,0,1-1.526,1.172l1.516,2.625-1.732,1-1.515-2.625a14.917,14.917,0,0,1-1.778.737l.784,2.926-1.932.518-.785-2.928A15.016,15.016,0,0,1,37,63.967V67Z" opacity="0.33" fill="url(#z)" style="mix-blend-mode:overlay;isolation:isolate"/></g><path d="M35,67V64h2v3ZM51,50V48h3v2ZM18,50V48h3v2ZM35,34V31h2v3Z" fill="#bb9c66"/><path d="M35,67V64h2v3ZM51,50V48h3v2ZM18,50V48h3v2ZM35,34V31h2v3Z" opacity="0.19" fill="url(#z)" style="mix-blend-mode:overlay;isolation:isolate"/><g fill="none"><path d="M33,59a3,3,0,1,1,3,3A3,3,0,0,1,33,59Zm8,0V58h3v1ZM28,59V58h3v1Zm5-18V40h6v1Z" stroke="none"/><path d="M 36 61.00010299682617 C 37.10263824462891 61.00010299682617 37.99969482421875 60.10304641723633 37.99969482421875 59.00040817260742 C 37.99969482421875 57.89726638793945 37.10263824462891 56.99979400634766 36 56.99979400634766 C 34.89736175537109 56.99979400634766 34.00030517578125 57.89726638793945 34.00030517578125 59.00040817260742 C 34.00030517578125 60.10304641723633 34.89736175537109 61.00010299682617 36 61.00010299682617 M 36 62.00010299682617 C 34.34311294555664 62.00010299682617 33.00030517578125 60.65729522705078 33.00030517578125 59.00040817260742 C 33.00030517578125 57.34349060058594 34.34311294555664 55.99979400634766 36 55.99979400634766 C 37.65688705444336 55.99979400634766 38.99969482421875 57.34349060058594 38.99969482421875 59.00040817260742 C 38.99969482421875 60.65729522705078 37.65688705444336 62.00010299682617 36 62.00010299682617 Z M 44.0001106262207 59.00040817260742 L 41.00038909912109 59.00040817260742 L 41.00038909912109 57.99959945678711 L 44.0001106262207 57.99959945678711 L 44.0001106262207 59.00040817260742 Z M 30.99961090087891 59.00040817260742 L 27.9998893737793 59.00040817260742 L 27.9998893737793 57.99959945678711 L 30.99961090087891 57.99959945678711 L 30.99961090087891 59.00040817260742 Z M 38.99969482421875 41.00040817260742 L 33.00030517578125 41.00040817260742 L 33.00030517578125 39.99959945678711 L 38.99969482421875 39.99959945678711 L 38.99969482421875 41.00040817260742 Z" stroke="none" fill="#bb9c66"/></g><path d="M26.269,72.035A25.08,25.08,0,1,1,36,74,24.915,24.915,0,0,1,26.269,72.035Z" opacity="0.42" fill="url(#e)" style="mix-blend-mode:soft-light;isolation:isolate"/></g></g></g></svg>