<svg xmlns="http://www.w3.org/2000/svg" width="951" height="767" viewBox="0 0 951 767"><path d="M1639,1261v-50h50v50Zm-322-222.106,11.885-11.885-11.948-11.948,2.121-2.12,14,14-.115.115.053.052L1319.107,1041Zm-64.938-11.756.052-.052-.114-.114L1265.893,1013l2.105,2.117-11.855,11.921,11.793,11.859-2.089,2.1ZM1784,733V683h150v50ZM1012.808,516.192a12.946,12.946,0,0,1-3.09-4.91L1008,513l-6-6,6-6,1.718,1.718a13.013,13.013,0,0,1,24.564,0L1036,501l6,6-6,6-1.718-1.718a13.006,13.006,0,0,1-21.474,4.91Zm9.193-.833a8.37,8.37,0,0,0,8.352-8.007L1030,507l.353-.353a8.36,8.36,0,0,0-16.7,0L1014,507l-.353.353A8.371,8.371,0,0,0,1022,515.36Zm24,2.64,11.917-11L1046,496l1-1,11.959,11.039L1059,506l1,1-1,1-.041-.039L1047,519Zm-61.959-10.038L984,508l-1-1,1-1,.041.039L996,495l1,1-11.917,11L997,518l-1,1ZM1016,507l6-6,6,6-6,6Z" transform="translate(-983 -494)" fill="#bb9c66"/></svg>