<svg xmlns="http://www.w3.org/2000/svg" xmlns:xlink="http://www.w3.org/1999/xlink" width="144.007" height="33.005" viewBox="0 0 144.007 33.005">
  <defs>
    <filter id="Shape_12" x="33.567" y="2.769" width="110.441" height="27.917" filterUnits="userSpaceOnUse">
      <feOffset dy="1" input="SourceAlpha"/>
      <feGaussianBlur result="blur"/>
      <feFlood flood-color="#6f511c"/>
      <feComposite operator="in" in2="blur"/>
      <feComposite in="SourceGraphic"/>
    </filter>
    <linearGradient id="linear-gradient" x1="0.5" y1="1" x2="0.5" gradientUnits="objectBoundingBox">
      <stop offset="0"/>
      <stop offset="1" stop-color="#fff"/>
    </linearGradient>
    <filter id="Shape_13" x="0" y="0" width="28.016" height="33.005" filterUnits="userSpaceOnUse">
      <feOffset dy="1" input="SourceAlpha"/>
      <feGaussianBlur result="blur-2"/>
      <feFlood flood-color="#6f511c"/>
      <feComposite operator="in" in2="blur-2"/>
      <feComposite in="SourceGraphic"/>
    </filter>
  </defs>
  <g id="logo1" transform="translate(-570.992 -26.024)">
    <g id="Shape_12-2" data-name="Shape 12">
      <g transform="matrix(1, 0, 0, 1, 570.99, 26.02)" filter="url(#Shape_12)">
        <path id="Shape_12-3" data-name="Shape 12" d="M714.718,47.758a.543.543,0,0,0-.487.3l-.356.509q-.685.938-1.357,1.928a14.393,14.393,0,0,1-1.489,1.849l-.408.415a3.025,3.025,0,0,1-.487.4,2.352,2.352,0,0,1-.54.268.943.943,0,0,1-.567.013.408.408,0,0,1-.3-.429,2.821,2.821,0,0,1,.092-.777,5.891,5.891,0,0,1,.263-.817,4.793,4.793,0,0,1,.237-.523q.211-.482.461-.964t.54-.964a33.9,33.9,0,0,1,2.082-3.188q.289-.374.58-.736c.193-.241.395-.486.606-.737q.211-.269.527-.6a1.146,1.146,0,0,0,.343-.71.427.427,0,0,0-.237-.482.842.842,0,0,0-.554-.027,11.381,11.381,0,0,1-1.976.4,2.668,2.668,0,0,1-1.476-.268c-.452-.251-.834-.843-1.321-.128a2.237,2.237,0,0,0-.233.342,5.241,5.241,0,0,0-.346,1.025l0,.006c-.8,2.582-6.377,10.033-8.875,10.033a1.5,1.5,0,0,1-1.155-.486,1.358,1.358,0,0,1-.175-.264,1.827,1.827,0,0,1-.184-.763,2.546,2.546,0,0,1,.119-.844,3.748,3.748,0,0,1,.461-1.085,2.639,2.639,0,0,1,.645-.683,3.756,3.756,0,0,1,.856-.456q.488-.187,1.094-.429.527-.213,1.212-.535a10.887,10.887,0,0,0,1.357-.764,11.285,11.285,0,0,0,1.265-.964,4.663,4.663,0,0,0,.949-1.126,2.949,2.949,0,0,0,.408-1.286,2.513,2.513,0,0,0-.343-1.406q-.37-.7-1.607-.562a8.025,8.025,0,0,0-2.227.6,10.333,10.333,0,0,0-2.016,1.138,11.537,11.537,0,0,0-2.569,2.5,15.148,15.148,0,0,0-1.713,2.953c-.174.244-.353.481-.54.7q-.448.536-.909,1t-.909.951q-.448.455-.9.9a2.835,2.835,0,0,1-1.054.657,1.081,1.081,0,0,1-.409.026c-.131-.018-.2-.116-.2-.294a2.162,2.162,0,0,1,.158-.644,12.084,12.084,0,0,1,.474-1.139q.263-.548.58-1.084.764-1.366,1.5-2.746t1.581-2.746q.843-1.339,1.62-2.692t1.515-2.773l.9-1.607A17.577,17.577,0,0,1,700.2,36.4q.237-.322.474-.67a6.606,6.606,0,0,0,.435-.737,3.931,3.931,0,0,0,.3-.79,1.781,1.781,0,0,0,.026-.8q-.106-.562-.474-.535a5.973,5.973,0,0,0-.764.107,1.69,1.69,0,0,1-.527.027,4.454,4.454,0,0,0-.593-.014,2.891,2.891,0,0,0-.566.08.86.86,0,0,0-.448.282.538.538,0,0,0-.118.388,2.161,2.161,0,0,1-.013.415c-.036.179-.075.344-.118.5a2.763,2.763,0,0,1-.171.442,6.44,6.44,0,0,1-.488.91q-.277.429-.54.884-.5.858-.988,1.728t-.962,1.727q-.29.537-.58,1.085a7.332,7.332,0,0,1-.659,1.031,3.458,3.458,0,0,1-.343.388.394.394,0,0,1-.263.12.527.527,0,0,1-.29-.107l-.4-.268a1.847,1.847,0,0,0-1.12-.335,4.3,4.3,0,0,0-1.238.215,6.733,6.733,0,0,0-1.2.522,11.572,11.572,0,0,0-1,.616,18.915,18.915,0,0,0-2.727,2.331,13.271,13.271,0,0,0-1.873,2.427c-.061.1-.108.171-.143.224a12.7,12.7,0,0,1-.79,1.126q-.422.537-.87,1.071-.527.616-1.054,1.179t-1.107,1.125q-.106.08-.29.241a4.616,4.616,0,0,1-.4.308,1.54,1.54,0,0,1-.422.214.473.473,0,0,1-.369-.013.342.342,0,0,1-.211-.321,1.2,1.2,0,0,1,.053-.376,5.541,5.541,0,0,1,.738-1.768q.527-.83,1-1.607.237-.375.448-.75l.422-.751q.738-1.286,1.449-2.558t1.528-2.5c.035-.053.079-.125.132-.214a2.4,2.4,0,0,0,.132-.254.423.423,0,0,0,.027-.255.321.321,0,0,0-.158-.214.423.423,0,0,0-.422-.04,1.033,1.033,0,0,1-.422.094,8.286,8.286,0,0,1-.935,0,2.028,2.028,0,0,0-.883.134.975.975,0,0,0-.474.4,2.18,2.18,0,0,0-.2.281c-.1.152-.137.246-.119.281a3.533,3.533,0,0,1-.356-.616.765.765,0,0,0-.514-.429,2.29,2.29,0,0,0-.488-.107l-.487-.053a2.805,2.805,0,0,0-1.015.188q-.488.188-.962.375a7.257,7.257,0,0,0-1.094.509q-.514.295-1.015.616c-.228.161-.448.322-.659.483s-.413.33-.606.509a13.475,13.475,0,0,0-1.871,2.035c-.316.424-.616.864-.908,1.313l-.225.322q-.686.938-1.357,1.928a14.366,14.366,0,0,1-1.489,1.849l-.409.415a3.013,3.013,0,0,1-.487.4,2.357,2.357,0,0,1-.54.268.944.944,0,0,1-.567.013.408.408,0,0,1-.3-.429,2.826,2.826,0,0,1,.092-.777,5.9,5.9,0,0,1,.263-.817,4.827,4.827,0,0,1,.237-.523q.211-.482.461-.964t.541-.964a33.851,33.851,0,0,1,2.082-3.188q.289-.374.58-.736c.193-.241.4-.486.606-.737q.21-.269.527-.6a1.146,1.146,0,0,0,.343-.71.426.426,0,0,0-.237-.482.841.841,0,0,0-.553-.027,11.387,11.387,0,0,1-1.976.4,2.668,2.668,0,0,1-1.476-.268c-.452-.251-.833-.843-1.321-.128a2.251,2.251,0,0,0-.233.342,5.246,5.246,0,0,0-.346,1.025l0,.006c-.8,2.582-5.586,9.551-8.084,9.551a2.077,2.077,0,0,1-.35-.031.783.783,0,0,1-.23-.1.9.9,0,0,1-.342-.483,1.318,1.318,0,0,1,.026-.777,4.344,4.344,0,0,1,.422-1.125q.289-.536.632-1.044,1.344-1.983,2.556-3.991t2.451-4.046a4.23,4.23,0,0,1,.58-.79,1.138,1.138,0,0,1,.87-.335,4.114,4.114,0,0,1,.856.04,1.246,1.246,0,0,0,.83-.147.846.846,0,0,0,.316-.428c.088-.214.07-.376-.053-.482a.754.754,0,0,0-.382-.121,4.318,4.318,0,0,0-.475,0l-.487.027a1.026,1.026,0,0,1-.4-.041,4.463,4.463,0,0,1,.712-1.432,14.437,14.437,0,0,0,.87-1.326q.342-.588.7-1.152a5.582,5.582,0,0,0,.566-1.179c.07-.178.145-.379.224-.6a.753.753,0,0,0-.013-.6.636.636,0,0,0-.606-.362,5.567,5.567,0,0,0-.712.067,2.027,2.027,0,0,1-.58.027q-.316-.027-.633-.027a3.327,3.327,0,0,0-.606.054,1.152,1.152,0,0,0-.5.214,1.227,1.227,0,0,0-.3.415,4.884,4.884,0,0,0-.211.535q-.093.282-.171.563t-.158.5q-.237.563-.514,1.1c-.184.357-.374.715-.566,1.071-.105.2-.22.407-.343.63a5.031,5.031,0,0,1-.422.643,2.652,2.652,0,0,1-.527.522,1.438,1.438,0,0,1-.659.268,1.876,1.876,0,0,1-.488-.014,3.434,3.434,0,0,0-.606-.027,1.61,1.61,0,0,0-.554.12.5.5,0,0,0-.3.4q-.053.321.158.428a1.2,1.2,0,0,0,.5.121l.606.026a.774.774,0,0,1,.474.148.533.533,0,0,0-.277.294c-.062.144-.119.268-.171.375a6.133,6.133,0,0,1-.632.911q-1.265,1.741-2.411,3.59c-.58.936-1.123,1.884-1.648,2.841l-.025.025a6.3,6.3,0,0,0-.777,1.1,8.769,8.769,0,0,1-.751,1.125q-.37.508-.764.991a6.073,6.073,0,0,1-.9.884q-.369.295-.738.549a1.617,1.617,0,0,1-.843.282.691.691,0,0,1-.711-.308,3.2,3.2,0,0,1-.369-.763,2.287,2.287,0,0,1-.171-.83q-.014-.456-.039-.884,0-.616.026-1.111a1.807,1.807,0,0,1,.421-1.005q.685-.909,1.436-1.848a6,6,0,0,1,1.752-1.5q.237-.107.5-.214a2.346,2.346,0,0,1,.527-.148,1.1,1.1,0,0,1,.514.041,1.039,1.039,0,0,1,.461.321c.14.2.277.291.408.282a.877.877,0,0,0,.461-.228,2.871,2.871,0,0,0,.461-.576,3.526,3.526,0,0,0,.4-.844,2.611,2.611,0,0,0,.132-.871.817.817,0,0,0-.33-.657,1.222,1.222,0,0,0-.857-.267,3,3,0,0,0-.856.16,3.612,3.612,0,0,0-1.107.67,10.267,10.267,0,0,0-1.647,1.687q-.724.939-1.488,1.849-.185.215-.356.4a4.878,4.878,0,0,0-.329.4c-.106.143-.176.2-.211.16a.3.3,0,0,1-.04-.228,3.793,3.793,0,0,1,.053-.388,1.94,1.94,0,0,0,.04-.295,7.347,7.347,0,0,1,.343-1.366q.237-.67.5-1.339a1.686,1.686,0,0,1,.1-.281,1.728,1.728,0,0,0,.119-.362,1.215,1.215,0,0,0,.027-.348.287.287,0,0,0-.171-.241.479.479,0,0,0-.369-.067c-.141.027-.264.049-.369.067-.193.036-.387.181-.58.2s-.387.144-.58.144h-.461c-.167,0-.3-.072-.409.017-.035.036-.057.035-.066.116a.338.338,0,0,1-.066.172,7.343,7.343,0,0,1-.5.977c-.193.321-.386.626-.58.93-.193.339-.4.67-.606,1s-.431.654-.659.976a5.57,5.57,0,0,1-.461.562,2.252,2.252,0,0,0-.408.615c0,.005,0,.012,0,.017s-.016.015-.022.023a1.863,1.863,0,0,0-.184.281,16.364,16.364,0,0,1-.949,1.42q-.5.67-1.054,1.367c-.141.16-.272.313-.395.456l-.4.455a5.552,5.552,0,0,0-.448.455,3.809,3.809,0,0,1-.474.456l-.474.362a.606.606,0,0,1-.553.12q-.58-.106-.053-1.527a10.178,10.178,0,0,1,1-2.009q.659-1.018,1.226-2.116a21.069,21.069,0,0,1,1.251-2.116q.4-.589.817-1.313.184-.32.382-.642a2.213,2.213,0,0,0,.277-.67q.052-.16.105-.375a1.637,1.637,0,0,0,.053-.389.471.471,0,0,0-.092-.294.428.428,0,0,0-.356-.121,3.21,3.21,0,0,0-.514.04,2,2,0,0,1-.514.014c-.158-.018-.316-.031-.474-.041a1.721,1.721,0,0,0-.474.041,2.764,2.764,0,0,0-.606.161.574.574,0,0,0-.237.214c-.036.071-.079.17-.132.294-.018.037-.049.107-.092.214a3.281,3.281,0,0,0-.119.349,10.4,10.4,0,0,1-1,2.236q-.632,1.059-1.265,2.076a15.779,15.779,0,0,1-.9,1.392l-.685.965q-.343.482-.711.937-.212.268-.4.549a3.439,3.439,0,0,1-.421.522q-.158.161-.5.536a5.853,5.853,0,0,1-.764.7,2.959,2.959,0,0,1-.8.455.484.484,0,0,1-.619-.24.8.8,0,0,1-.026-.724c.106-.285.2-.527.29-.723a14.978,14.978,0,0,1,.8-1.433c.29-.456.584-.915.883-1.38s.575-.929.83-1.393.523-.929.8-1.394q.369-.616.738-1.245a8.729,8.729,0,0,0,.632-1.326q.105-.295.224-.723a1.058,1.058,0,0,0-.013-.723.323.323,0,0,0-.224-.215,1.047,1.047,0,0,0-.382-.04,3.461,3.461,0,0,0-.422.053,1.88,1.88,0,0,1-.316.04,4.1,4.1,0,0,1-.672-.054,1.711,1.711,0,0,0-.672.027q-.448.107-.461.428a4.271,4.271,0,0,1-.092.7,2.715,2.715,0,0,1-.145.5,4.474,4.474,0,0,1-.224.468,10.786,10.786,0,0,1-.646,1.179q-.356.563-.7,1.125-.369.643-.764,1.272c-.225.359-.441.713-.653,1.065.015-.083.034-.165.046-.248a9.117,9.117,0,0,0,.066-1.018,7.935,7.935,0,0,0-.079-1.286,3.609,3.609,0,0,0-.356-1.152,1.1,1.1,0,0,0-.764-.616q-.4-.107-.5.214a1.162,1.162,0,0,0-.053.59,11.709,11.709,0,0,1,.171,1.754,5.658,5.658,0,0,1-.276,1.754q-.212.671-.5,1.42a8.333,8.333,0,0,1-.7,1.406,4.844,4.844,0,0,1-.975,1.139,2.763,2.763,0,0,1-1.357.616,4.581,4.581,0,0,1-1.357.013,8.654,8.654,0,0,1-1.331-.294q-.659-.2-1.3-.456t-1.278-.469a1.809,1.809,0,0,0-.356-.093,3.438,3.438,0,0,1-.435-.107,1.422,1.422,0,0,1-.369-.174.312.312,0,0,1-.132-.322.775.775,0,0,1,.316-.508c.193-.161.351-.3.474-.429a8.219,8.219,0,0,0,.83-.991q.382-.536.751-1.072.605-.858,1.159-1.768a17.657,17.657,0,0,0,1-1.9c.106-.25.2-.509.29-.777a1.061,1.061,0,0,1,.527-.616q.685-.375,1.436-.723t1.462-.723a16.978,16.978,0,0,0,2.859-1.808,31.206,31.206,0,0,0,2.569-2.237q.606-.617,1.159-1.259t1.054-1.34q.369-.456.685-.938a11.173,11.173,0,0,0,.58-.991,6.4,6.4,0,0,0,.474-1.393,4.647,4.647,0,0,0,.105-1.54,2.52,2.52,0,0,0-.514-1.3,1.877,1.877,0,0,0-1.331-.67,5.988,5.988,0,0,0-2.779.416,12.684,12.684,0,0,0-2.517,1.3,15.816,15.816,0,0,0-2.793,2.357,27.009,27.009,0,0,0-2.345,2.839,20.4,20.4,0,0,0-1.212,1.822q-.554.938-1.081,1.9-.264.481-.5.964l-.475.964q-.184.375-.382.764a2.6,2.6,0,0,1-.461.656,1.542,1.542,0,0,1-.632.388,1.515,1.515,0,0,1-.87-.014,4.577,4.577,0,0,1-1.845-.964,4.743,4.743,0,0,1-1.186-1.567,5.681,5.681,0,0,1-.514-1.929,6.179,6.179,0,0,1,.171-2.076,6.347,6.347,0,0,1,.7-1.755,6.274,6.274,0,0,1,1.186-1.487,5.779,5.779,0,0,1,1.568-1.031,4.476,4.476,0,0,1,1.845-.389,3.418,3.418,0,0,1,.62.095,4.835,4.835,0,0,0,.856.107,1.631,1.631,0,0,0,.7-.107c.184-.081.233-.272.145-.576a.85.85,0,0,0-.474-.549,2.317,2.317,0,0,0-.764-.174,4.489,4.489,0,0,0-.843.027q-.422.055-.685.081a9.1,9.1,0,0,0-2.714.857,10.6,10.6,0,0,0-2.069,1.38,8.945,8.945,0,0,0-1.647,1.835,9.346,9.346,0,0,0-.922,1.755,5.145,5.145,0,0,0-.4,1.942,7.866,7.866,0,0,0,.356,2.384,4.376,4.376,0,0,0,1.331,1.982,5,5,0,0,0,1.186.8,7.411,7.411,0,0,0,1.37.509,5.178,5.178,0,0,0,1.331.148,5.725,5.725,0,0,1,1.3.12,1.468,1.468,0,0,1-.158.415q-.185.416-.422.924t-.448.964c-.141.3-.22.482-.237.536q-.422.857-.883,1.7a6.944,6.944,0,0,1-1.146,1.541.889.889,0,0,1-.672.308,5.24,5.24,0,0,1-.777-.094,11.844,11.844,0,0,0-1.976-.161,14.175,14.175,0,0,0-1.976.134q-.606.081-1.173.134a4.948,4.948,0,0,0-1.173.268,5.589,5.589,0,0,0-1.014.483,2.755,2.755,0,0,0-.791.7,1.672,1.672,0,0,0-.343.883,1.713,1.713,0,0,0,.356,1.072,2.078,2.078,0,0,0,1.278.9,13.293,13.293,0,0,0,1.568.254,10.1,10.1,0,0,0,1.37.014,10.293,10.293,0,0,0,1.344-.174q.738-.16,1.436-.375a9.3,9.3,0,0,0,1.357-.536,7.667,7.667,0,0,1,1.146-.456,2.079,2.079,0,0,1,1.225.054q.843.294,1.621.616a7.125,7.125,0,0,0,1.647.456c.457.071.926.163,1.41.225a11.157,11.157,0,0,0,1.436.118h.027a7.37,7.37,0,0,0,2.885-.667,7.569,7.569,0,0,0,2.437-1.673c.111-.122.213-.256.316-.382-.011.054-.029.1-.039.158a3.164,3.164,0,0,0,.04,1.312,2.133,2.133,0,0,0,.224.588,1.09,1.09,0,0,0,.408.456,2.372,2.372,0,0,0,.25.134c.079.035.162.071.25.106a1.662,1.662,0,0,0,.646.094,4.564,4.564,0,0,0,.646-.067,2.4,2.4,0,0,0,.922-.415q.421-.308.817-.6a12.243,12.243,0,0,0,1.423-1.339,5.808,5.808,0,0,0,.461-.469q.224-.254.329-.362c.158-.2.246-.281.263-.254a1.808,1.808,0,0,1-.079.522,5.11,5.11,0,0,0-.145,1.179,1.649,1.649,0,0,0,.329,1.1,1.534,1.534,0,0,0,1,.589,2.776,2.776,0,0,0,1.159-.027,3.7,3.7,0,0,0,1.449-.777c.261-.222.5-.454.731-.689,0,.012-.005.022-.006.033a1.671,1.671,0,0,0,.171.9,1.254,1.254,0,0,0,.922.587c.087.018.175-.029.263-.029h.264a2.127,2.127,0,0,0,.856-.145,3.767,3.767,0,0,0,.777-.414,4.044,4.044,0,0,0,.633-.535c.193-.206.386-.409.58-.623.158-.2.32-.38.487-.559s.33-.364.488-.56a.279.279,0,0,0,.066-.093c.008-.027.03-.022.066.014a.381.381,0,0,1,.119.241q.039.188.066.268a5.479,5.479,0,0,0,.514,1.219,2.464,2.464,0,0,0,.935.924,1.883,1.883,0,0,0,.619.214,1.938,1.938,0,0,0,.646,0,3.937,3.937,0,0,0,.645-.12,2.223,2.223,0,0,0,.645-.281,6.5,6.5,0,0,0,.975-.711,6.148,6.148,0,0,0,.843-.9,3.074,3.074,0,0,1,.356-.4,5.2,5.2,0,0,0,.382-.4c.213-.28.416-.551.621-.825a6.116,6.116,0,0,0-.107.612,4.2,4.2,0,0,0,.079,1.487,2.025,2.025,0,0,0,.544.961,1.7,1.7,0,0,0,1.737.783,2.6,2.6,0,0,0,1.053-.123,5.521,5.521,0,0,0,.919-.413c4.693-2.339,7.644-9,8.338-9.772a.824.824,0,0,1,.466-.209,1.714,1.714,0,0,1,.5.188,1,1,0,0,0,.5.134,1.293,1.293,0,0,0,.224-.027,1.488,1.488,0,0,1,.264-.027.357.357,0,0,1,.185.041c.044.027.04.094-.013.2a1.109,1.109,0,0,1-.408.456,4.2,4.2,0,0,0-.488.4q-.922.939-1.844,1.983a9.8,9.8,0,0,0-1.5,2.25q-.211.4-.4.857a9.333,9.333,0,0,0-.316.911,4.134,4.134,0,0,0-.158.924,2.937,2.937,0,0,0,.105.951,1.425,1.425,0,0,0,.356.656,1.725,1.725,0,0,0,.566.389,2.142,2.142,0,0,0,.7.161,3.478,3.478,0,0,0,.751-.027,4.263,4.263,0,0,0,1.91-.9,12.076,12.076,0,0,0,1.515-1.487q.316-.375.633-.79c.2-.256.381-.508.561-.756q-.073.337-.113.662a6.175,6.175,0,0,0-.04.925,3.724,3.724,0,0,0,.145.951,2.441,2.441,0,0,0,.408.817,1.535,1.535,0,0,0,.751.522l.053.027a2.43,2.43,0,0,0,1.265-.014,4.462,4.462,0,0,0,1.186-.5,7.768,7.768,0,0,0,1.845-1.473q.184-.215.356-.4a5.292,5.292,0,0,1,.382-.375c.07-.071.145-.156.224-.254a.444.444,0,0,1,.25-.174.469.469,0,0,1-.026.268l-.105.267a2.938,2.938,0,0,0-.013,1.206,1.91,1.91,0,0,0,.567,1.045,1.355,1.355,0,0,0,1.054.455,2.954,2.954,0,0,0,1.16-.308,5.058,5.058,0,0,0,1.094-.724,9.777,9.777,0,0,0,.856-.817q.5-.535.988-1.085t.962-1.111q.2-.236.4-.469a8.923,8.923,0,0,0-.358,1.554,3.727,3.727,0,0,0,.2,1.915,1.82,1.82,0,0,0,1.5,1.072,3.5,3.5,0,0,0,.975-.027,3.612,3.612,0,0,0,1.146-.389,5.9,5.9,0,0,0,.975-.669,9.676,9.676,0,0,0,.87-.83q.409-.443.8-.9.132-.134.237-.255a1.051,1.051,0,0,0,.132-.174c.035-.071.079-.107.132-.107q-.053.4-.079.643t-.052.469c-.018.152-.027.245-.027.282a2.753,2.753,0,0,0,.106.75,1.461,1.461,0,0,0,.369.643,1.3,1.3,0,0,0,.9.4,4.268,4.268,0,0,0,.975-.053,2.684,2.684,0,0,0,.724-.254,2.92,2.92,0,0,0,.619-.442,29.053,29.053,0,0,0,2.319-2.237c.292-.315.572-.639.851-.964a6.106,6.106,0,0,0-.153,1.07,3.64,3.64,0,0,0,.224,1.487,2.29,2.29,0,0,0,1.027,1.153,2.779,2.779,0,0,0,1.185.342c.4.095.847.338,1.251-.052h0a1.959,1.959,0,0,0,.5-.061c.047-.013.094,0,.141-.016.172-.05.316-.088.42-.126.018-.007.037-.005.056-.013l.041-.015.085-.034.074-.035a7.428,7.428,0,0,0,1.71-1.035l.016-.016c3.786-2.833,6.163-8.119,6.776-8.8a.823.823,0,0,1,.466-.209,1.714,1.714,0,0,1,.5.188,1,1,0,0,0,.5.134,1.293,1.293,0,0,0,.224-.027,1.486,1.486,0,0,1,.264-.027.356.356,0,0,1,.184.041c.044.027.04.094-.013.2a1.108,1.108,0,0,1-.409.456,4.217,4.217,0,0,0-.488.4q-.922.939-1.844,1.983a9.8,9.8,0,0,0-1.5,2.25A9.8,9.8,0,0,0,705.6,52.5a4.138,4.138,0,0,0-.158.924,2.931,2.931,0,0,0,.106.951,1.423,1.423,0,0,0,.356.656,1.726,1.726,0,0,0,.566.389,2.142,2.142,0,0,0,.7.161,3.477,3.477,0,0,0,.751-.027,4.262,4.262,0,0,0,1.911-.9,12.077,12.077,0,0,0,1.515-1.487q.316-.375.632-.79c.211-.276.413-.55.606-.817q.369-.455.737-.924t.738-.951a4.738,4.738,0,0,0,.3-.375,5.129,5.129,0,0,0,.409-.63,1.828,1.828,0,0,0,.224-.616Q715.035,47.785,714.718,47.758Zm-15.138.134a5.8,5.8,0,0,1,.316-.563c.114-.178.189-.294.224-.348q.369-.563.764-1.085t.817-1.059c.087-.107.184-.218.29-.334s.211-.237.316-.362q.211-.214.527-.523a1.437,1.437,0,0,1,.632-.388.343.343,0,0,1,.382.147.578.578,0,0,1,.119.415,2.321,2.321,0,0,1-.316,1.044,7.369,7.369,0,0,1-.606.911,11.226,11.226,0,0,1-1.2,1.339,8.022,8.022,0,0,1-1.436,1.1c-.035.017-.136.071-.3.16a2.049,2.049,0,0,1-.461.188c-.176.036-.255-.014-.237-.147A1.665,1.665,0,0,1,699.581,47.892Zm-75.769-6.483q.5-.937.961-1.9t.936-1.9q.553-1.126,1.159-2.157t1.265-2.076q.527-.83,1.107-1.634a5.682,5.682,0,0,1,1.4-1.366q.158-.108.54-.336a4.636,4.636,0,0,1,.79-.375,1.8,1.8,0,0,1,.751-.12.525.525,0,0,1,.474.375A2.025,2.025,0,0,1,633.271,31a5.051,5.051,0,0,1-.369,1.192,11.179,11.179,0,0,1-.58,1.125q-.316.537-.58.937-.711,1.1-1.554,2.157a22.908,22.908,0,0,1-1.818,2.022,21.336,21.336,0,0,1-2.042,1.782,14.327,14.327,0,0,1-2.227,1.406.613.613,0,0,1-.316.093C623.714,41.709,623.723,41.606,623.811,41.409ZM611.585,53.142a3.159,3.159,0,0,1-.988.911,3.952,3.952,0,0,1-2.78.51,2.167,2.167,0,0,1-1.212-.67,1.243,1.243,0,0,1-.316-.656.886.886,0,0,1,.132-.71,1.045,1.045,0,0,1,.448-.375,2.368,2.368,0,0,1,.619-.187,2.678,2.678,0,0,1,.659-.027q.329.027.593.054c.105.018.334.053.685.107s.707.125,1.067.214a3.489,3.489,0,0,1,.909.348Q611.769,52.875,611.585,53.142Zm33.223-7.206c0,.036-.073.071-.09.107a20.228,20.228,0,0,0-.4,2.075,17.232,17.232,0,0,0-.148,2.13c0,.214-.016.425-.034.63a1.362,1.362,0,0,1-.215.6,2.278,2.278,0,0,1-.385.522l-.435.442q-.211.214-.436.428a4.263,4.263,0,0,1-.487.4c-.053.035-.141.1-.264.187a1.947,1.947,0,0,1-.369.215.568.568,0,0,1-.329.053q-.145-.026-.171-.268a1.192,1.192,0,0,1,.026-.254.634.634,0,0,0,0-.255,1.218,1.218,0,0,0-.224-.469.605.605,0,0,0-.435-.254,1.48,1.48,0,0,0-.353.008c.025-.03.051-.058.076-.089q.566-.7,1.12-1.393.289-.348.54-.67a5.579,5.579,0,0,0,.461-.7l.2-.268a2.267,2.267,0,0,0,.211-.348c.018-.038.031-.073.045-.111.161-.22.3-.409.416-.559a8.292,8.292,0,0,0,.474-.7q.21-.348.422-.723c.088-.143.243-.3.34-.469s.445-.3.445-.388Zm30.887,3.469q-.764,1.111-1.607,2.183a13.223,13.223,0,0,1-1.067,1.165,4.954,4.954,0,0,1-1.278.9,1.275,1.275,0,0,1-.764.12.812.812,0,0,1-.553-.522.99.99,0,0,1-.092-.576,3.4,3.4,0,0,1,.145-.63,4.681,4.681,0,0,1,.25-.616c.1-.2.18-.375.25-.536q.289-.562.58-1.1t.632-1.045q.342-.509.659-1.018t.685-.992q.633-.884,1.383-1.821a5.9,5.9,0,0,1,1.7-1.473,3.15,3.15,0,0,1,.817-.294.7.7,0,0,1,.765.267.925.925,0,0,1,.171.724,5.97,5.97,0,0,1-.171.751,8.154,8.154,0,0,1-.5,1.125l-.58,1.071A26.738,26.738,0,0,1,675.694,49.406Zm14.585-2.5q-.225.4-.409.723a19.113,19.113,0,0,1-1.344,2.143q-.738,1.019-1.529,1.983c-.386.465-.786.858-1.2,1.3a2.25,2.25,0,0,1-1.463.893h-.026c-.4.39-.769.188-1.094-.036a1,1,0,0,1-.409-1.029,4.573,4.573,0,0,1,.567-1.888,16.787,16.787,0,0,1,1.041-1.653c.422-.589.847-1.17,1.278-1.751s.891-1.145,1.383-1.7l.632-.708a9.582,9.582,0,0,1,.791-.79,4.872,4.872,0,0,1,.883-.63,1.658,1.658,0,0,1,.909-.227.9.9,0,0,1,.54.307.958.958,0,0,1,.251.55,2.51,2.51,0,0,1-.092.83,6.685,6.685,0,0,1-.3.857Q690.5,46.5,690.279,46.9Z" transform="translate(-570.99 -26.02)" fill="#bb9c66"/>
      </g>
      <path id="Gradient_Overlay" data-name="Gradient Overlay" d="M714.718,47.758a.543.543,0,0,0-.487.3l-.356.509q-.685.938-1.357,1.928a14.393,14.393,0,0,1-1.489,1.849l-.408.415a3.025,3.025,0,0,1-.487.4,2.352,2.352,0,0,1-.54.268.943.943,0,0,1-.567.013.408.408,0,0,1-.3-.429,2.821,2.821,0,0,1,.092-.777,5.891,5.891,0,0,1,.263-.817,4.793,4.793,0,0,1,.237-.523q.211-.482.461-.964t.54-.964a33.9,33.9,0,0,1,2.082-3.188q.289-.374.58-.736c.193-.241.395-.486.606-.737q.211-.269.527-.6a1.146,1.146,0,0,0,.343-.71.427.427,0,0,0-.237-.482.842.842,0,0,0-.554-.027,11.381,11.381,0,0,1-1.976.4,2.668,2.668,0,0,1-1.476-.268c-.452-.251-.834-.843-1.321-.128a2.237,2.237,0,0,0-.233.342,5.241,5.241,0,0,0-.346,1.025l0,.006c-.8,2.582-6.377,10.033-8.875,10.033a1.5,1.5,0,0,1-1.155-.486,1.358,1.358,0,0,1-.175-.264,1.827,1.827,0,0,1-.184-.763,2.546,2.546,0,0,1,.119-.844,3.748,3.748,0,0,1,.461-1.085,2.639,2.639,0,0,1,.645-.683,3.756,3.756,0,0,1,.856-.456q.488-.187,1.094-.429.527-.213,1.212-.535a10.887,10.887,0,0,0,1.357-.764,11.285,11.285,0,0,0,1.265-.964,4.663,4.663,0,0,0,.949-1.126,2.949,2.949,0,0,0,.408-1.286,2.513,2.513,0,0,0-.343-1.406q-.37-.7-1.607-.562a8.025,8.025,0,0,0-2.227.6,10.333,10.333,0,0,0-2.016,1.138,11.537,11.537,0,0,0-2.569,2.5,15.148,15.148,0,0,0-1.713,2.953c-.174.244-.353.481-.54.7q-.448.536-.909,1t-.909.951q-.448.455-.9.9a2.835,2.835,0,0,1-1.054.657,1.081,1.081,0,0,1-.409.026c-.131-.018-.2-.116-.2-.294a2.162,2.162,0,0,1,.158-.644,12.084,12.084,0,0,1,.474-1.139q.263-.548.58-1.084.764-1.366,1.5-2.746t1.581-2.746q.843-1.339,1.62-2.692t1.515-2.773l.9-1.607A17.577,17.577,0,0,1,700.2,36.4q.237-.322.474-.67a6.606,6.606,0,0,0,.435-.737,3.931,3.931,0,0,0,.3-.79,1.781,1.781,0,0,0,.026-.8q-.106-.562-.474-.535a5.973,5.973,0,0,0-.764.107,1.69,1.69,0,0,1-.527.027,4.454,4.454,0,0,0-.593-.014,2.891,2.891,0,0,0-.566.08.86.86,0,0,0-.448.282.538.538,0,0,0-.118.388,2.161,2.161,0,0,1-.013.415c-.036.179-.075.344-.118.5a2.763,2.763,0,0,1-.171.442,6.44,6.44,0,0,1-.488.91q-.277.429-.54.884-.5.858-.988,1.728t-.962,1.727q-.29.537-.58,1.085a7.332,7.332,0,0,1-.659,1.031,3.458,3.458,0,0,1-.343.388.394.394,0,0,1-.263.12.527.527,0,0,1-.29-.107l-.4-.268a1.847,1.847,0,0,0-1.12-.335,4.3,4.3,0,0,0-1.238.215,6.733,6.733,0,0,0-1.2.522,11.572,11.572,0,0,0-1,.616,18.915,18.915,0,0,0-2.727,2.331,13.271,13.271,0,0,0-1.873,2.427c-.061.1-.108.171-.143.224a12.7,12.7,0,0,1-.79,1.126q-.422.537-.87,1.071-.527.616-1.054,1.179t-1.107,1.125q-.106.08-.29.241a4.616,4.616,0,0,1-.4.308,1.54,1.54,0,0,1-.422.214.473.473,0,0,1-.369-.013.342.342,0,0,1-.211-.321,1.2,1.2,0,0,1,.053-.376,5.541,5.541,0,0,1,.738-1.768q.527-.83,1-1.607.237-.375.448-.75l.422-.751q.738-1.286,1.449-2.558t1.528-2.5c.035-.053.079-.125.132-.214a2.4,2.4,0,0,0,.132-.254.423.423,0,0,0,.027-.255.321.321,0,0,0-.158-.214.423.423,0,0,0-.422-.04,1.033,1.033,0,0,1-.422.094,8.286,8.286,0,0,1-.935,0,2.028,2.028,0,0,0-.883.134.975.975,0,0,0-.474.4,2.18,2.18,0,0,0-.2.281c-.1.152-.137.246-.119.281a3.533,3.533,0,0,1-.356-.616.765.765,0,0,0-.514-.429,2.29,2.29,0,0,0-.488-.107l-.487-.053a2.805,2.805,0,0,0-1.015.188q-.488.188-.962.375a7.257,7.257,0,0,0-1.094.509q-.514.295-1.015.616c-.228.161-.448.322-.659.483s-.413.33-.606.509a13.475,13.475,0,0,0-1.871,2.035c-.316.424-.616.864-.908,1.313l-.225.322q-.686.938-1.357,1.928a14.366,14.366,0,0,1-1.489,1.849l-.409.415a3.013,3.013,0,0,1-.487.4,2.357,2.357,0,0,1-.54.268.944.944,0,0,1-.567.013.408.408,0,0,1-.3-.429,2.826,2.826,0,0,1,.092-.777,5.9,5.9,0,0,1,.263-.817,4.827,4.827,0,0,1,.237-.523q.211-.482.461-.964t.541-.964a33.851,33.851,0,0,1,2.082-3.188q.289-.374.58-.736c.193-.241.4-.486.606-.737q.21-.269.527-.6a1.146,1.146,0,0,0,.343-.71.426.426,0,0,0-.237-.482.841.841,0,0,0-.553-.027,11.387,11.387,0,0,1-1.976.4,2.668,2.668,0,0,1-1.476-.268c-.452-.251-.833-.843-1.321-.128a2.251,2.251,0,0,0-.233.342,5.246,5.246,0,0,0-.346,1.025l0,.006c-.8,2.582-5.586,9.551-8.084,9.551a2.077,2.077,0,0,1-.35-.031.783.783,0,0,1-.23-.1.9.9,0,0,1-.342-.483,1.318,1.318,0,0,1,.026-.777,4.344,4.344,0,0,1,.422-1.125q.289-.536.632-1.044,1.344-1.983,2.556-3.991t2.451-4.046a4.23,4.23,0,0,1,.58-.79,1.138,1.138,0,0,1,.87-.335,4.114,4.114,0,0,1,.856.04,1.246,1.246,0,0,0,.83-.147.846.846,0,0,0,.316-.428c.088-.214.07-.376-.053-.482a.754.754,0,0,0-.382-.121,4.318,4.318,0,0,0-.475,0l-.487.027a1.026,1.026,0,0,1-.4-.041,4.463,4.463,0,0,1,.712-1.432,14.437,14.437,0,0,0,.87-1.326q.342-.588.7-1.152a5.582,5.582,0,0,0,.566-1.179c.07-.178.145-.379.224-.6a.753.753,0,0,0-.013-.6.636.636,0,0,0-.606-.362,5.567,5.567,0,0,0-.712.067,2.027,2.027,0,0,1-.58.027q-.316-.027-.633-.027a3.327,3.327,0,0,0-.606.054,1.152,1.152,0,0,0-.5.214,1.227,1.227,0,0,0-.3.415,4.884,4.884,0,0,0-.211.535q-.093.282-.171.563t-.158.5q-.237.563-.514,1.1c-.184.357-.374.715-.566,1.071-.105.2-.22.407-.343.63a5.031,5.031,0,0,1-.422.643,2.652,2.652,0,0,1-.527.522,1.438,1.438,0,0,1-.659.268,1.876,1.876,0,0,1-.488-.014,3.434,3.434,0,0,0-.606-.027,1.61,1.61,0,0,0-.554.12.5.5,0,0,0-.3.4q-.053.321.158.428a1.2,1.2,0,0,0,.5.121l.606.026a.774.774,0,0,1,.474.148.533.533,0,0,0-.277.294c-.062.144-.119.268-.171.375a6.133,6.133,0,0,1-.632.911q-1.265,1.741-2.411,3.59c-.58.936-1.123,1.884-1.648,2.841l-.025.025a6.3,6.3,0,0,0-.777,1.1,8.769,8.769,0,0,1-.751,1.125q-.37.508-.764.991a6.073,6.073,0,0,1-.9.884q-.369.295-.738.549a1.617,1.617,0,0,1-.843.282.691.691,0,0,1-.711-.308,3.2,3.2,0,0,1-.369-.763,2.287,2.287,0,0,1-.171-.83q-.014-.456-.039-.884,0-.616.026-1.111a1.807,1.807,0,0,1,.421-1.005q.685-.909,1.436-1.848a6,6,0,0,1,1.752-1.5q.237-.107.5-.214a2.346,2.346,0,0,1,.527-.148,1.1,1.1,0,0,1,.514.041,1.039,1.039,0,0,1,.461.321c.14.2.277.291.408.282a.877.877,0,0,0,.461-.228,2.871,2.871,0,0,0,.461-.576,3.526,3.526,0,0,0,.4-.844,2.611,2.611,0,0,0,.132-.871.817.817,0,0,0-.33-.657,1.222,1.222,0,0,0-.857-.267,3,3,0,0,0-.856.16,3.612,3.612,0,0,0-1.107.67,10.267,10.267,0,0,0-1.647,1.687q-.724.939-1.488,1.849-.185.215-.356.4a4.878,4.878,0,0,0-.329.4c-.106.143-.176.2-.211.16a.3.3,0,0,1-.04-.228,3.793,3.793,0,0,1,.053-.388,1.94,1.94,0,0,0,.04-.295,7.347,7.347,0,0,1,.343-1.366q.237-.67.5-1.339a1.686,1.686,0,0,1,.1-.281,1.728,1.728,0,0,0,.119-.362,1.215,1.215,0,0,0,.027-.348.287.287,0,0,0-.171-.241.479.479,0,0,0-.369-.067c-.141.027-.264.049-.369.067-.193.036-.387.181-.58.2s-.387.144-.58.144h-.461c-.167,0-.3-.072-.409.017-.035.036-.057.035-.066.116a.338.338,0,0,1-.066.172,7.343,7.343,0,0,1-.5.977c-.193.321-.386.626-.58.93-.193.339-.4.67-.606,1s-.431.654-.659.976a5.57,5.57,0,0,1-.461.562,2.252,2.252,0,0,0-.408.615c0,.005,0,.012,0,.017s-.016.015-.022.023a1.863,1.863,0,0,0-.184.281,16.364,16.364,0,0,1-.949,1.42q-.5.67-1.054,1.367c-.141.16-.272.313-.395.456l-.4.455a5.552,5.552,0,0,0-.448.455,3.809,3.809,0,0,1-.474.456l-.474.362a.606.606,0,0,1-.553.12q-.58-.106-.053-1.527a10.178,10.178,0,0,1,1-2.009q.659-1.018,1.226-2.116a21.069,21.069,0,0,1,1.251-2.116q.4-.589.817-1.313.184-.32.382-.642a2.213,2.213,0,0,0,.277-.67q.052-.16.105-.375a1.637,1.637,0,0,0,.053-.389.471.471,0,0,0-.092-.294.428.428,0,0,0-.356-.121,3.21,3.21,0,0,0-.514.04,2,2,0,0,1-.514.014c-.158-.018-.316-.031-.474-.041a1.721,1.721,0,0,0-.474.041,2.764,2.764,0,0,0-.606.161.574.574,0,0,0-.237.214c-.036.071-.079.17-.132.294-.018.037-.049.107-.092.214a3.281,3.281,0,0,0-.119.349,10.4,10.4,0,0,1-1,2.236q-.632,1.059-1.265,2.076a15.779,15.779,0,0,1-.9,1.392l-.685.965q-.343.482-.711.937-.212.268-.4.549a3.439,3.439,0,0,1-.421.522q-.158.161-.5.536a5.853,5.853,0,0,1-.764.7,2.959,2.959,0,0,1-.8.455.484.484,0,0,1-.619-.24.8.8,0,0,1-.026-.724c.106-.285.2-.527.29-.723a14.978,14.978,0,0,1,.8-1.433c.29-.456.584-.915.883-1.38s.575-.929.83-1.393.523-.929.8-1.394q.369-.616.738-1.245a8.729,8.729,0,0,0,.632-1.326q.105-.295.224-.723a1.058,1.058,0,0,0-.013-.723.323.323,0,0,0-.224-.215,1.047,1.047,0,0,0-.382-.04,3.461,3.461,0,0,0-.422.053,1.88,1.88,0,0,1-.316.04,4.1,4.1,0,0,1-.672-.054,1.711,1.711,0,0,0-.672.027q-.448.107-.461.428a4.271,4.271,0,0,1-.092.7,2.715,2.715,0,0,1-.145.5,4.474,4.474,0,0,1-.224.468,10.786,10.786,0,0,1-.646,1.179q-.356.563-.7,1.125-.369.643-.764,1.272c-.225.359-.441.713-.653,1.065.015-.083.034-.165.046-.248a9.117,9.117,0,0,0,.066-1.018,7.935,7.935,0,0,0-.079-1.286,3.609,3.609,0,0,0-.356-1.152,1.1,1.1,0,0,0-.764-.616q-.4-.107-.5.214a1.162,1.162,0,0,0-.053.59,11.709,11.709,0,0,1,.171,1.754,5.658,5.658,0,0,1-.276,1.754q-.212.671-.5,1.42a8.333,8.333,0,0,1-.7,1.406,4.844,4.844,0,0,1-.975,1.139,2.763,2.763,0,0,1-1.357.616,4.581,4.581,0,0,1-1.357.013,8.654,8.654,0,0,1-1.331-.294q-.659-.2-1.3-.456t-1.278-.469a1.809,1.809,0,0,0-.356-.093,3.438,3.438,0,0,1-.435-.107,1.422,1.422,0,0,1-.369-.174.312.312,0,0,1-.132-.322.775.775,0,0,1,.316-.508c.193-.161.351-.3.474-.429a8.219,8.219,0,0,0,.83-.991q.382-.536.751-1.072.605-.858,1.159-1.768a17.657,17.657,0,0,0,1-1.9c.106-.25.2-.509.29-.777a1.061,1.061,0,0,1,.527-.616q.685-.375,1.436-.723t1.462-.723a16.978,16.978,0,0,0,2.859-1.808,31.206,31.206,0,0,0,2.569-2.237q.606-.617,1.159-1.259t1.054-1.34q.369-.456.685-.938a11.173,11.173,0,0,0,.58-.991,6.4,6.4,0,0,0,.474-1.393,4.647,4.647,0,0,0,.105-1.54,2.52,2.52,0,0,0-.514-1.3,1.877,1.877,0,0,0-1.331-.67,5.988,5.988,0,0,0-2.779.416,12.684,12.684,0,0,0-2.517,1.3,15.816,15.816,0,0,0-2.793,2.357,27.009,27.009,0,0,0-2.345,2.839,20.4,20.4,0,0,0-1.212,1.822q-.554.938-1.081,1.9-.264.481-.5.964l-.475.964q-.184.375-.382.764a2.6,2.6,0,0,1-.461.656,1.542,1.542,0,0,1-.632.388,1.515,1.515,0,0,1-.87-.014,4.577,4.577,0,0,1-1.845-.964,4.743,4.743,0,0,1-1.186-1.567,5.681,5.681,0,0,1-.514-1.929,6.179,6.179,0,0,1,.171-2.076,6.347,6.347,0,0,1,.7-1.755,6.274,6.274,0,0,1,1.186-1.487,5.779,5.779,0,0,1,1.568-1.031,4.476,4.476,0,0,1,1.845-.389,3.418,3.418,0,0,1,.62.095,4.835,4.835,0,0,0,.856.107,1.631,1.631,0,0,0,.7-.107c.184-.081.233-.272.145-.576a.85.85,0,0,0-.474-.549,2.317,2.317,0,0,0-.764-.174,4.489,4.489,0,0,0-.843.027q-.422.055-.685.081a9.1,9.1,0,0,0-2.714.857,10.6,10.6,0,0,0-2.069,1.38,8.945,8.945,0,0,0-1.647,1.835,9.346,9.346,0,0,0-.922,1.755,5.145,5.145,0,0,0-.4,1.942,7.866,7.866,0,0,0,.356,2.384,4.376,4.376,0,0,0,1.331,1.982,5,5,0,0,0,1.186.8,7.411,7.411,0,0,0,1.37.509,5.178,5.178,0,0,0,1.331.148,5.725,5.725,0,0,1,1.3.12,1.468,1.468,0,0,1-.158.415q-.185.416-.422.924t-.448.964c-.141.3-.22.482-.237.536q-.422.857-.883,1.7a6.944,6.944,0,0,1-1.146,1.541.889.889,0,0,1-.672.308,5.24,5.24,0,0,1-.777-.094,11.844,11.844,0,0,0-1.976-.161,14.175,14.175,0,0,0-1.976.134q-.606.081-1.173.134a4.948,4.948,0,0,0-1.173.268,5.589,5.589,0,0,0-1.014.483,2.755,2.755,0,0,0-.791.7,1.672,1.672,0,0,0-.343.883,1.713,1.713,0,0,0,.356,1.072,2.078,2.078,0,0,0,1.278.9,13.293,13.293,0,0,0,1.568.254,10.1,10.1,0,0,0,1.37.014,10.293,10.293,0,0,0,1.344-.174q.738-.16,1.436-.375a9.3,9.3,0,0,0,1.357-.536,7.667,7.667,0,0,1,1.146-.456,2.079,2.079,0,0,1,1.225.054q.843.294,1.621.616a7.125,7.125,0,0,0,1.647.456c.457.071.926.163,1.41.225a11.157,11.157,0,0,0,1.436.118h.027a7.37,7.37,0,0,0,2.885-.667,7.569,7.569,0,0,0,2.437-1.673c.111-.122.213-.256.316-.382-.011.054-.029.1-.039.158a3.164,3.164,0,0,0,.04,1.312,2.133,2.133,0,0,0,.224.588,1.09,1.09,0,0,0,.408.456,2.372,2.372,0,0,0,.25.134c.079.035.162.071.25.106a1.662,1.662,0,0,0,.646.094,4.564,4.564,0,0,0,.646-.067,2.4,2.4,0,0,0,.922-.415q.421-.308.817-.6a12.243,12.243,0,0,0,1.423-1.339,5.808,5.808,0,0,0,.461-.469q.224-.254.329-.362c.158-.2.246-.281.263-.254a1.808,1.808,0,0,1-.079.522,5.11,5.11,0,0,0-.145,1.179,1.649,1.649,0,0,0,.329,1.1,1.534,1.534,0,0,0,1,.589,2.776,2.776,0,0,0,1.159-.027,3.7,3.7,0,0,0,1.449-.777c.261-.222.5-.454.731-.689,0,.012-.005.022-.006.033a1.671,1.671,0,0,0,.171.9,1.254,1.254,0,0,0,.922.587c.087.018.175-.029.263-.029h.264a2.127,2.127,0,0,0,.856-.145,3.767,3.767,0,0,0,.777-.414,4.044,4.044,0,0,0,.633-.535c.193-.206.386-.409.58-.623.158-.2.32-.38.487-.559s.33-.364.488-.56a.279.279,0,0,0,.066-.093c.008-.027.03-.022.066.014a.381.381,0,0,1,.119.241q.039.188.066.268a5.479,5.479,0,0,0,.514,1.219,2.464,2.464,0,0,0,.935.924,1.883,1.883,0,0,0,.619.214,1.938,1.938,0,0,0,.646,0,3.937,3.937,0,0,0,.645-.12,2.223,2.223,0,0,0,.645-.281,6.5,6.5,0,0,0,.975-.711,6.148,6.148,0,0,0,.843-.9,3.074,3.074,0,0,1,.356-.4,5.2,5.2,0,0,0,.382-.4c.213-.28.416-.551.621-.825a6.116,6.116,0,0,0-.107.612,4.2,4.2,0,0,0,.079,1.487,2.025,2.025,0,0,0,.544.961,1.7,1.7,0,0,0,1.737.783,2.6,2.6,0,0,0,1.053-.123,5.521,5.521,0,0,0,.919-.413c4.693-2.339,7.644-9,8.338-9.772a.824.824,0,0,1,.466-.209,1.714,1.714,0,0,1,.5.188,1,1,0,0,0,.5.134,1.293,1.293,0,0,0,.224-.027,1.488,1.488,0,0,1,.264-.027.357.357,0,0,1,.185.041c.044.027.04.094-.013.2a1.109,1.109,0,0,1-.408.456,4.2,4.2,0,0,0-.488.4q-.922.939-1.844,1.983a9.8,9.8,0,0,0-1.5,2.25q-.211.4-.4.857a9.333,9.333,0,0,0-.316.911,4.134,4.134,0,0,0-.158.924,2.937,2.937,0,0,0,.105.951,1.425,1.425,0,0,0,.356.656,1.725,1.725,0,0,0,.566.389,2.142,2.142,0,0,0,.7.161,3.478,3.478,0,0,0,.751-.027,4.263,4.263,0,0,0,1.91-.9,12.076,12.076,0,0,0,1.515-1.487q.316-.375.633-.79c.2-.256.381-.508.561-.756q-.073.337-.113.662a6.175,6.175,0,0,0-.04.925,3.724,3.724,0,0,0,.145.951,2.441,2.441,0,0,0,.408.817,1.535,1.535,0,0,0,.751.522l.053.027a2.43,2.43,0,0,0,1.265-.014,4.462,4.462,0,0,0,1.186-.5,7.768,7.768,0,0,0,1.845-1.473q.184-.215.356-.4a5.292,5.292,0,0,1,.382-.375c.07-.071.145-.156.224-.254a.444.444,0,0,1,.25-.174.469.469,0,0,1-.026.268l-.105.267a2.938,2.938,0,0,0-.013,1.206,1.91,1.91,0,0,0,.567,1.045,1.355,1.355,0,0,0,1.054.455,2.954,2.954,0,0,0,1.16-.308,5.058,5.058,0,0,0,1.094-.724,9.777,9.777,0,0,0,.856-.817q.5-.535.988-1.085t.962-1.111q.2-.236.4-.469a8.923,8.923,0,0,0-.358,1.554,3.727,3.727,0,0,0,.2,1.915,1.82,1.82,0,0,0,1.5,1.072,3.5,3.5,0,0,0,.975-.027,3.612,3.612,0,0,0,1.146-.389,5.9,5.9,0,0,0,.975-.669,9.676,9.676,0,0,0,.87-.83q.409-.443.8-.9.132-.134.237-.255a1.051,1.051,0,0,0,.132-.174c.035-.071.079-.107.132-.107q-.053.4-.079.643t-.052.469c-.018.152-.027.245-.027.282a2.753,2.753,0,0,0,.106.75,1.461,1.461,0,0,0,.369.643,1.3,1.3,0,0,0,.9.4,4.268,4.268,0,0,0,.975-.053,2.684,2.684,0,0,0,.724-.254,2.92,2.92,0,0,0,.619-.442,29.053,29.053,0,0,0,2.319-2.237c.292-.315.572-.639.851-.964a6.106,6.106,0,0,0-.153,1.07,3.64,3.64,0,0,0,.224,1.487,2.29,2.29,0,0,0,1.027,1.153,2.779,2.779,0,0,0,1.185.342c.4.095.847.338,1.251-.052h0a1.959,1.959,0,0,0,.5-.061c.047-.013.094,0,.141-.016.172-.05.316-.088.42-.126.018-.007.037-.005.056-.013l.041-.015.085-.034.074-.035a7.428,7.428,0,0,0,1.71-1.035l.016-.016c3.786-2.833,6.163-8.119,6.776-8.8a.823.823,0,0,1,.466-.209,1.714,1.714,0,0,1,.5.188,1,1,0,0,0,.5.134,1.293,1.293,0,0,0,.224-.027,1.486,1.486,0,0,1,.264-.027.356.356,0,0,1,.184.041c.044.027.04.094-.013.2a1.108,1.108,0,0,1-.409.456,4.217,4.217,0,0,0-.488.4q-.922.939-1.844,1.983a9.8,9.8,0,0,0-1.5,2.25A9.8,9.8,0,0,0,705.6,52.5a4.138,4.138,0,0,0-.158.924,2.931,2.931,0,0,0,.106.951,1.423,1.423,0,0,0,.356.656,1.726,1.726,0,0,0,.566.389,2.142,2.142,0,0,0,.7.161,3.477,3.477,0,0,0,.751-.027,4.262,4.262,0,0,0,1.911-.9,12.077,12.077,0,0,0,1.515-1.487q.316-.375.632-.79c.211-.276.413-.55.606-.817q.369-.455.737-.924t.738-.951a4.738,4.738,0,0,0,.3-.375,5.129,5.129,0,0,0,.409-.63,1.828,1.828,0,0,0,.224-.616Q715.035,47.785,714.718,47.758Zm-15.138.134a5.8,5.8,0,0,1,.316-.563c.114-.178.189-.294.224-.348q.369-.563.764-1.085t.817-1.059c.087-.107.184-.218.29-.334s.211-.237.316-.362q.211-.214.527-.523a1.437,1.437,0,0,1,.632-.388.343.343,0,0,1,.382.147.578.578,0,0,1,.119.415,2.321,2.321,0,0,1-.316,1.044,7.369,7.369,0,0,1-.606.911,11.226,11.226,0,0,1-1.2,1.339,8.022,8.022,0,0,1-1.436,1.1c-.035.017-.136.071-.3.16a2.049,2.049,0,0,1-.461.188c-.176.036-.255-.014-.237-.147A1.665,1.665,0,0,1,699.581,47.892Zm-75.769-6.483q.5-.937.961-1.9t.936-1.9q.553-1.126,1.159-2.157t1.265-2.076q.527-.83,1.107-1.634a5.682,5.682,0,0,1,1.4-1.366q.158-.108.54-.336a4.636,4.636,0,0,1,.79-.375,1.8,1.8,0,0,1,.751-.12.525.525,0,0,1,.474.375A2.025,2.025,0,0,1,633.271,31a5.051,5.051,0,0,1-.369,1.192,11.179,11.179,0,0,1-.58,1.125q-.316.537-.58.937-.711,1.1-1.554,2.157a22.908,22.908,0,0,1-1.818,2.022,21.336,21.336,0,0,1-2.042,1.782,14.327,14.327,0,0,1-2.227,1.406.613.613,0,0,1-.316.093C623.714,41.709,623.723,41.606,623.811,41.409ZM611.585,53.142a3.159,3.159,0,0,1-.988.911,3.952,3.952,0,0,1-2.78.51,2.167,2.167,0,0,1-1.212-.67,1.243,1.243,0,0,1-.316-.656.886.886,0,0,1,.132-.71,1.045,1.045,0,0,1,.448-.375,2.368,2.368,0,0,1,.619-.187,2.678,2.678,0,0,1,.659-.027q.329.027.593.054c.105.018.334.053.685.107s.707.125,1.067.214a3.489,3.489,0,0,1,.909.348Q611.769,52.875,611.585,53.142Zm33.223-7.206c0,.036-.073.071-.09.107a20.228,20.228,0,0,0-.4,2.075,17.232,17.232,0,0,0-.148,2.13c0,.214-.016.425-.034.63a1.362,1.362,0,0,1-.215.6,2.278,2.278,0,0,1-.385.522l-.435.442q-.211.214-.436.428a4.263,4.263,0,0,1-.487.4c-.053.035-.141.1-.264.187a1.947,1.947,0,0,1-.369.215.568.568,0,0,1-.329.053q-.145-.026-.171-.268a1.192,1.192,0,0,1,.026-.254.634.634,0,0,0,0-.255,1.218,1.218,0,0,0-.224-.469.605.605,0,0,0-.435-.254,1.48,1.48,0,0,0-.353.008c.025-.03.051-.058.076-.089q.566-.7,1.12-1.393.289-.348.54-.67a5.579,5.579,0,0,0,.461-.7l.2-.268a2.267,2.267,0,0,0,.211-.348c.018-.038.031-.073.045-.111.161-.22.3-.409.416-.559a8.292,8.292,0,0,0,.474-.7q.21-.348.422-.723c.088-.143.243-.3.34-.469s.445-.3.445-.388Zm30.887,3.469q-.764,1.111-1.607,2.183a13.223,13.223,0,0,1-1.067,1.165,4.954,4.954,0,0,1-1.278.9,1.275,1.275,0,0,1-.764.12.812.812,0,0,1-.553-.522.99.99,0,0,1-.092-.576,3.4,3.4,0,0,1,.145-.63,4.681,4.681,0,0,1,.25-.616c.1-.2.18-.375.25-.536q.289-.562.58-1.1t.632-1.045q.342-.509.659-1.018t.685-.992q.633-.884,1.383-1.821a5.9,5.9,0,0,1,1.7-1.473,3.15,3.15,0,0,1,.817-.294.7.7,0,0,1,.765.267.925.925,0,0,1,.171.724,5.97,5.97,0,0,1-.171.751,8.154,8.154,0,0,1-.5,1.125l-.58,1.071A26.738,26.738,0,0,1,675.694,49.406Zm14.585-2.5q-.225.4-.409.723a19.113,19.113,0,0,1-1.344,2.143q-.738,1.019-1.529,1.983c-.386.465-.786.858-1.2,1.3a2.25,2.25,0,0,1-1.463.893h-.026c-.4.39-.769.188-1.094-.036a1,1,0,0,1-.409-1.029,4.573,4.573,0,0,1,.567-1.888,16.787,16.787,0,0,1,1.041-1.653c.422-.589.847-1.17,1.278-1.751s.891-1.145,1.383-1.7l.632-.708a9.582,9.582,0,0,1,.791-.79,4.872,4.872,0,0,1,.883-.63,1.658,1.658,0,0,1,.909-.227.9.9,0,0,1,.54.307.958.958,0,0,1,.251.55,2.51,2.51,0,0,1-.092.83,6.685,6.685,0,0,1-.3.857Q690.5,46.5,690.279,46.9Z" opacity="0.17" fill="url(#linear-gradient)" style="mix-blend-mode: overlay;isolation: isolate"/>
    </g>
    <g id="Shape_13-2" data-name="Shape 13">
      <g transform="matrix(1, 0, 0, 1, 570.99, 26.02)" filter="url(#Shape_13)">
        <path id="Shape_13-3" data-name="Shape 13" d="M571.293,35.212a.48.48,0,0,1,.283-.117,1.173,1.173,0,0,1,.282-1.209c.349-.287.762-.029,1.359.651l.018-.015c-.005,0-.014,0,.011.032a.448.448,0,0,0,.681.087.4.4,0,0,0,.113-.511l-.232-.29c-.339-.422-.018-.943.4-1.289l4.952-4.069c.421-.345.643-.268.981.153l.288.359c.073.091.435-.108.564-.214.232-.191.381-.521.194-.754-.024-.029.042-.073.036-.068l.017-.014c-.536-.731-.7-1.191-.353-1.479a1.2,1.2,0,0,1,1.253,0,.508.508,0,0,1,.158-.272c.738-.606,2.59.466,4.146,2.4s2.216,3.994,1.478,4.6a.487.487,0,0,1-.284.116c.112.59.052,1.051-.227,1.281-.362.3-.772.033-1.363-.651l-.016.014c-.04.032-.605-.07-.807.1-.128.106-.4.414-.33.5l.3.377c.2.252.38.473.3.768a25.273,25.273,0,0,0-2.848-4.022c-1.449-1.805-2.536-2.891-2.536-2.891-.11.223,1.159,1.74,2.259,3.109,1.063,1.324,2.946,3.866,3.253,3.876a1.05,1.05,0,0,1-.239.467l-.953.783a.226.226,0,0,1,.332.02.234.234,0,0,1-.049.333l-.112.092c.072-.059.373.232.535.435a5.1,5.1,0,0,1,1.116,3,5.315,5.315,0,0,1-.534-1.423c-.217-.958-.834-2.122-1.279-1.756s.627,1.01.887,1.826a3.664,3.664,0,0,0,.908,1.381c0,.076-.005.15-.012.222.511-.269.96-.331,1.133-.116.127.158.078.433-.1.746a1.681,1.681,0,0,1,1.156.621,37.615,37.615,0,0,0,2.54,4.276c1.485,1.85,6.147,6.542,7.056,7.675,1.042,1.3,1.3,2.829.583,3.42l-.031.023c-.72.591-2.15.016-3.192-1.282-.909-1.132-4.5-6.713-5.983-8.562a37,37,0,0,0-3.61-3.383,1.72,1.72,0,0,1-.364-1.271c-.34.113-.617.1-.743-.053-.172-.215-.021-.647.345-1.1a4.743,4.743,0,0,1-2.922-1.741c-.162-.2-.383-.559-.311-.619l-.112.092a.245.245,0,0,1-.346-.037.252.252,0,0,1,.035-.35l-1.005.825a1.125,1.125,0,0,1-1.5-.179l-.246-.306c-.1-.13-.326-.083-.485.047-.2.166-.044.6-.084.638l-.016.013c.542.726.712,1.183.349,1.482-.278.229-.734.2-1.283-.036a.478.478,0,0,1-.172.254c-.738.606-2.6-.474-4.153-2.411S570.556,35.819,571.293,35.212Zm16.77-3.423a28.434,28.434,0,0,0-2.112-3.253,10.046,10.046,0,0,0-2.294-2.233A34.908,34.908,0,0,1,588.064,31.789Zm-4.82-3.748c.38-.259.84.5,1.949,1.553h0c1.339,1.69,2.666,3.543,2.648,3.459a27.827,27.827,0,0,0-2.566-4.015,29.3,29.3,0,0,0-2.728-2.905c-.076.006-.085.063-.042.16-.12-.014-.141.128-.233.251a3.7,3.7,0,0,0-.207,1.384C582.245,28.546,582.865,28.3,583.244,28.042Zm-.184,1.683c.088-.073-.093-.444-.4-.83s-.633-.641-.721-.569.093.444.4.83S582.972,29.8,583.06,29.724Zm-.776.347c.141-.115.091-.412-.11-.662s-.477-.36-.618-.244-.091.411.111.662S582.144,30.187,582.284,30.071Zm4.81,11.275c-.15-.189-.362-.267-.472-.176s-.077.316.073.5.362.266.472.177S587.244,41.534,587.093,41.346Zm1.308,3.231a69.994,69.994,0,0,1,5.851,6.99c3.084,4.17,3.729,4.987,4.129,4.658s-1.017-2.12-1.976-3.286-1.674-1.554-4.076-4.386-3.847-4.519-4.094-5.373-.494-1.072-.83-1.033C586.963,42.2,587.019,43.02,588.4,44.577Zm-8.068-5.012s.208.145,2.354-1.617c2.1-1.726,1.816-1.808,1.816-1.808a.849.849,0,0,1-.836-.21l-4.75-5.915a.942.942,0,0,1,.165-1.127c-.029.019,0-.011-.03.011,0,0-.173-.174-2.324,1.593-2.257,1.855-2.084,2.029-2.084,2.029-.027.023-.13.116-.154.14a.667.667,0,0,1,.907.246l4.75,5.916A.693.693,0,0,1,580.333,39.566Zm-.206.644c.111-.223-1.144-1.753-2.243-3.122s-3.016-3.986-3.223-3.816,1.451,2.266,2.9,4.07A31.783,31.783,0,0,0,580.128,40.21ZM575.316,35.8c.131-.108.075-.4-.126-.648s-.471-.367-.6-.259-.075.4.126.648S575.185,35.9,575.316,35.8Zm-1.336,1.388c-.09-.243-1.094-1.372-.892-1.59.114-.123.23-.029.36.136l.087.116c.077.107.159.227.249.338.027.032.051.058.074.08.266.34.557.7.835,1.051a21.874,21.874,0,0,0,1.61,1.815,11.658,11.658,0,0,0-1.478-1.918c-.323-.4-.813-.935-1.2-1.421h0s-.509-.914-.781-.982c-.018-.009-.006-.034-.014-.028-.252.022-.635.468.042,1.311S574.069,37.427,573.98,37.184Z" transform="translate(-570.99 -26.02)" fill="#bb9c66"/>
      </g>
      <path id="Gradient_Overlay-2" data-name="Gradient Overlay" d="M571.293,35.212a.48.48,0,0,1,.283-.117,1.173,1.173,0,0,1,.282-1.209c.349-.287.762-.029,1.359.651l.018-.015c-.005,0-.014,0,.011.032a.448.448,0,0,0,.681.087.4.4,0,0,0,.113-.511l-.232-.29c-.339-.422-.018-.943.4-1.289l4.952-4.069c.421-.345.643-.268.981.153l.288.359c.073.091.435-.108.564-.214.232-.191.381-.521.194-.754-.024-.029.042-.073.036-.068l.017-.014c-.536-.731-.7-1.191-.353-1.479a1.2,1.2,0,0,1,1.253,0,.508.508,0,0,1,.158-.272c.738-.606,2.59.466,4.146,2.4s2.216,3.994,1.478,4.6a.487.487,0,0,1-.284.116c.112.59.052,1.051-.227,1.281-.362.3-.772.033-1.363-.651l-.016.014c-.04.032-.605-.07-.807.1-.128.106-.4.414-.33.5l.3.377c.2.252.38.473.3.768a25.273,25.273,0,0,0-2.848-4.022c-1.449-1.805-2.536-2.891-2.536-2.891-.11.223,1.159,1.74,2.259,3.109,1.063,1.324,2.946,3.866,3.253,3.876a1.05,1.05,0,0,1-.239.467l-.953.783a.226.226,0,0,1,.332.02.234.234,0,0,1-.049.333l-.112.092c.072-.059.373.232.535.435a5.1,5.1,0,0,1,1.116,3,5.315,5.315,0,0,1-.534-1.423c-.217-.958-.834-2.122-1.279-1.756s.627,1.01.887,1.826a3.664,3.664,0,0,0,.908,1.381c0,.076-.005.15-.012.222.511-.269.96-.331,1.133-.116.127.158.078.433-.1.746a1.681,1.681,0,0,1,1.156.621,37.615,37.615,0,0,0,2.54,4.276c1.485,1.85,6.147,6.542,7.056,7.675,1.042,1.3,1.3,2.829.583,3.42l-.031.023c-.72.591-2.15.016-3.192-1.282-.909-1.132-4.5-6.713-5.983-8.562a37,37,0,0,0-3.61-3.383,1.72,1.72,0,0,1-.364-1.271c-.34.113-.617.1-.743-.053-.172-.215-.021-.647.345-1.1a4.743,4.743,0,0,1-2.922-1.741c-.162-.2-.383-.559-.311-.619l-.112.092a.245.245,0,0,1-.346-.037.252.252,0,0,1,.035-.35l-1.005.825a1.125,1.125,0,0,1-1.5-.179l-.246-.306c-.1-.13-.326-.083-.485.047-.2.166-.044.6-.084.638l-.016.013c.542.726.712,1.183.349,1.482-.278.229-.734.2-1.283-.036a.478.478,0,0,1-.172.254c-.738.606-2.6-.474-4.153-2.411S570.556,35.819,571.293,35.212Zm16.77-3.423a28.434,28.434,0,0,0-2.112-3.253,10.046,10.046,0,0,0-2.294-2.233A34.908,34.908,0,0,1,588.064,31.789Zm-4.82-3.748c.38-.259.84.5,1.949,1.553h0c1.339,1.69,2.666,3.543,2.648,3.459a27.827,27.827,0,0,0-2.566-4.015,29.3,29.3,0,0,0-2.728-2.905c-.076.006-.085.063-.042.16-.12-.014-.141.128-.233.251a3.7,3.7,0,0,0-.207,1.384C582.245,28.546,582.865,28.3,583.244,28.042Zm-.184,1.683c.088-.073-.093-.444-.4-.83s-.633-.641-.721-.569.093.444.4.83S582.972,29.8,583.06,29.724Zm-.776.347c.141-.115.091-.412-.11-.662s-.477-.36-.618-.244-.091.411.111.662S582.144,30.187,582.284,30.071Zm4.81,11.275c-.15-.189-.362-.267-.472-.176s-.077.316.073.5.362.266.472.177S587.244,41.534,587.093,41.346Zm1.308,3.231a69.994,69.994,0,0,1,5.851,6.99c3.084,4.17,3.729,4.987,4.129,4.658s-1.017-2.12-1.976-3.286-1.674-1.554-4.076-4.386-3.847-4.519-4.094-5.373-.494-1.072-.83-1.033C586.963,42.2,587.019,43.02,588.4,44.577Zm-8.068-5.012s.208.145,2.354-1.617c2.1-1.726,1.816-1.808,1.816-1.808a.849.849,0,0,1-.836-.21l-4.75-5.915a.942.942,0,0,1,.165-1.127c-.029.019,0-.011-.03.011,0,0-.173-.174-2.324,1.593-2.257,1.855-2.084,2.029-2.084,2.029-.027.023-.13.116-.154.14a.667.667,0,0,1,.907.246l4.75,5.916A.693.693,0,0,1,580.333,39.566Zm-.206.644c.111-.223-1.144-1.753-2.243-3.122s-3.016-3.986-3.223-3.816,1.451,2.266,2.9,4.07A31.783,31.783,0,0,0,580.128,40.21ZM575.316,35.8c.131-.108.075-.4-.126-.648s-.471-.367-.6-.259-.075.4.126.648S575.185,35.9,575.316,35.8Zm-1.336,1.388c-.09-.243-1.094-1.372-.892-1.59.114-.123.23-.029.36.136l.087.116c.077.107.159.227.249.338.027.032.051.058.074.08.266.34.557.7.835,1.051a21.874,21.874,0,0,0,1.61,1.815,11.658,11.658,0,0,0-1.478-1.918c-.323-.4-.813-.935-1.2-1.421h0s-.509-.914-.781-.982c-.018-.009-.006-.034-.014-.028-.252.022-.635.468.042,1.311S574.069,37.427,573.98,37.184Z" opacity="0.17" fill="url(#linear-gradient)" style="mix-blend-mode: overlay;isolation: isolate"/>
    </g>
  </g>
</svg>
