<svg xmlns="http://www.w3.org/2000/svg" width="10.094" height="13.073" viewBox="0 0 10.094 13.073">
  <path id="palm" d="M774.262,1175.665a2.267,2.267,0,0,1-1.157.335c-1.889,0-4.1-2.631-4.1-4.874v-4.875a.695.695,0,1,1,1.369,0v3.177a6.536,6.536,0,0,1,.684.009v-4.811a.694.694,0,1,1,1.368,0v4.874c.225,0,.454-.009.684-.02v-5.667a.694.694,0,1,1,1.368,0v5.609a4.743,4.743,0,0,1,.685.046v-4.03a.694.694,0,1,1,1.368,0v4.9c.688-.64,2.137-1.736,2.475-1.335.4.476-.6,2.524-1,3l-3,4a.19.19,0,0,1-.151.073C774.692,1176.073,774.484,1175.906,774.262,1175.665Z" transform="translate(-769 -1163.001)" fill="#fff"/>
</svg>
