<svg xmlns="http://www.w3.org/2000/svg" xmlns:xlink="http://www.w3.org/1999/xlink" width="50" height="57" viewBox="0 0 50 57">
  <defs>
    <linearGradient id="linear-gradient" x1="0.75" y1="86.825" x2="0.75" y2="-12.421" gradientUnits="objectBoundingBox">
      <stop offset="0"/>
      <stop offset="0.8"/>
      <stop offset="0.855" stop-color="#fff"/>
      <stop offset="1" stop-color="#fff"/>
    </linearGradient>
    <linearGradient id="linear-gradient-5" x1="0.5" y1="1.08" x2="0.5" y2="-0.48" xlink:href="#linear-gradient"/>
    <clipPath id="clip-path">
      <circle id="Ellipse_16" data-name="Ellipse 16" cx="22" cy="22" r="22" transform="translate(1000 711)" fill="#1c242a"/>
    </clipPath>
    <clipPath id="clip-path-2">
      <path id="Ellipse_11" data-name="Ellipse 11" d="M1022,758a24.921,24.921,0,1,1,9.731-1.965A24.845,24.845,0,0,1,1022,758Zm0-44a19,19,0,1,0,19,19A19.022,19.022,0,0,0,1022,714Z" fill="#bb9c66"/>
    </clipPath>
    <filter id="Shape_23" x="5.651" y="19.999" width="27.188" height="23.622" filterUnits="userSpaceOnUse">
      <feOffset dy="2" input="SourceAlpha"/>
      <feGaussianBlur stdDeviation="2.5" result="blur"/>
      <feFlood/>
      <feComposite operator="in" in2="blur"/>
      <feComposite in="SourceGraphic"/>
    </filter>
    <linearGradient id="linear-gradient-7" x1="0.5" y1="1" x2="0.5" gradientUnits="objectBoundingBox">
      <stop offset="0" stop-color="#c6c9c9"/>
      <stop offset="1" stop-color="#fff"/>
    </linearGradient>
    <filter id="Ellipse_17" x="6.499" y="10.499" width="37.001" height="28" filterUnits="userSpaceOnUse">
      <feOffset dy="2" input="SourceAlpha"/>
      <feGaussianBlur stdDeviation="2.5" result="blur-2"/>
      <feFlood/>
      <feComposite operator="in" in2="blur-2"/>
      <feComposite in="SourceGraphic"/>
    </filter>
    <linearGradient id="linear-gradient-8" x1="0.847" y1="137.278" x2="0.847" y2="-19.861" gradientUnits="objectBoundingBox">
      <stop offset="0"/>
      <stop offset="1" stop-color="#fff"/>
    </linearGradient>
    <clipPath id="clip-path-3">
      <path d="M1003.255,749.543A24.915,24.915,0,0,1,997,733h0a25,25,0,1,1,50,0h0a24.916,24.916,0,0,1-6.255,16.543,19.095,19.095,0,0,1-37.49,0Z" fill="none"/>
    </clipPath>
    <pattern id="pattern" preserveAspectRatio="none" width="100%" height="100%" viewBox="0 0 0 0">
      <image/>
    </pattern>
    <clipPath id="clip-path-4">
      <circle id="Ellipse_16-2" data-name="Ellipse 16" cx="22" cy="22" r="22" transform="translate(14 27)" fill="#1c242a"/>
    </clipPath>
    <clipPath id="clip-path-5">
      <path id="Ellipse_11-2" data-name="Ellipse 11" d="M36,74a24.922,24.922,0,1,1,9.731-1.965A24.844,24.844,0,0,1,36,74Zm0-44A19,19,0,1,0,55,49,19.021,19.021,0,0,0,36,30Z" fill="#bb9c66"/>
    </clipPath>
    <filter id="Shape_23-2" x="5.651" y="19.999" width="27.188" height="23.622" filterUnits="userSpaceOnUse">
      <feOffset dy="2" input="SourceAlpha"/>
      <feGaussianBlur stdDeviation="2.5" result="blur-3"/>
      <feFlood/>
      <feComposite operator="in" in2="blur-3"/>
      <feComposite in="SourceGraphic"/>
    </filter>
    <filter id="Ellipse_17-2" x="6.5" y="10.499" width="37" height="28.001" filterUnits="userSpaceOnUse">
      <feOffset dy="2" input="SourceAlpha"/>
      <feGaussianBlur stdDeviation="2.5" result="blur-4"/>
      <feFlood/>
      <feComposite operator="in" in2="blur-4"/>
      <feComposite in="SourceGraphic"/>
    </filter>
    <linearGradient id="linear-gradient-12" x1="0.5" y1="1.306" x2="0.5" y2="-0.861" xlink:href="#linear-gradient-8"/>
  </defs>
  <g id="watchIcon" transform="translate(-997 -708)">
    <g id="watchIcon-2" data-name="watchIcon">
      <g id="watchIcon-3" data-name="watchIcon">
        <ellipse id="Ellipse_21" data-name="Ellipse 21" cx="19" cy="18.5" rx="19" ry="18.5" transform="translate(1003 728)" fill="#bb9c66"/>
        <g id="Ellipse_16-3" data-name="Ellipse 16">
          <circle id="Ellipse_16-4" data-name="Ellipse 16" cx="22" cy="22" r="22" transform="translate(1000 711)" fill="#1c242a"/>
          <g id="Clip" clip-path="url(#clip-path)">
            <circle id="Ellipse_18" data-name="Ellipse 18" cx="11" cy="11" r="11" transform="translate(1011 709)" fill="#3e4f5b"/>
            <path id="Ellipse_19" data-name="Ellipse 19" d="M1021,754a25,25,0,0,1-25-24.833,26.009,26.009,0,0,0,50,0A25,25,0,0,1,1021,754Z" fill="#3e4f5b" style="mix-blend-mode: multiply;isolation: isolate"/>
          </g>
        </g>
        <g id="Ellipse_11-3" data-name="Ellipse 11">
          <path id="Ellipse_11-4" data-name="Ellipse 11" d="M1022,758a24.921,24.921,0,1,1,9.731-1.965A24.845,24.845,0,0,1,1022,758Zm0-44a19,19,0,1,0,19,19A19.022,19.022,0,0,0,1022,714Z" fill="#bb9c66"/>
          <g id="Clip-2" data-name="Clip" clip-path="url(#clip-path-2)">
            <path id="Shape_20" data-name="Shape 20" d="M1003,739c-1.318-6.764,3-13,3-13-.166-2.041,20.938-1.972,22-2s14.66,8,13,15-8.05,14-19,14S1004.319,745.764,1003,739Zm19-29c-21.157,0-25,23-25,23V708h50v25S1043.157,710,1022,710Z" fill="#bb9c66" opacity="0.82" style="mix-blend-mode: screen;isolation: isolate"/>
            <path id="Shape_20-2" data-name="Shape 20" d="M997,758V733s3.843,23,25,23,25-23,25-23v25Zm31-16c-1.062-.029-22.165.041-22-2,0,0-4.319-6.235-3-13s8.05-14,19-14,17.339,7,19,14-11.89,15-12.995,15Z" fill="#bb9c66" opacity="0.82" style="mix-blend-mode: multiply;isolation: isolate"/>
          </g>
        </g>
        <path id="Ellipse_15" data-name="Ellipse 15" d="M999.751,724.589h0a23.493,23.493,0,0,1,38.4-7.672,25.006,25.006,0,0,0-38.4,7.672Z" fill="#fff"/>
        <path id="Ellipse_15-2" data-name="Ellipse 15" d="M1021.5,754a23.426,23.426,0,0,1-16.648-6.914,25.007,25.007,0,0,0,38.407-7.694A23.508,23.508,0,0,1,1021.5,754Z" fill="#fff"/>
        <g transform="matrix(1, 0, 0, 1, 997, 708)" filter="url(#Shape_23)">
          <path id="Shape_23-3" data-name="Shape 23" d="M1022.339,734.331l-.547-.831-11.641,7.791.556.831Z" transform="translate(-997 -708)" fill="#b6ccde"/>
        </g>
        <g transform="matrix(1, 0, 0, 1, 997, 708)" filter="url(#Ellipse_17)">
          <path id="Ellipse_17-3" data-name="Ellipse 17" d="M1019,734c0-.03,0-.061,0-.091l-8-2.91v-2l8.644,3.143a3,3,0,0,1,3.919-.7L1031,724l2,1-8.129,8.129A3,3,0,1,1,1019,734Z" transform="translate(-997 -708)" fill="url(#linear-gradient-7)"/>
        </g>
        <g id="Shape_21" data-name="Shape 21" opacity="0.569">
          <path id="Shape_21-2" data-name="Shape 21" d="M1023,751h-2v-3.033c.327.022.663.033,1,.033s.669-.011,1-.033V751Zm-4.693-.354h0l-1.93-.518.784-2.926a14.934,14.934,0,0,0,1.932.516l-.784,2.927Zm7.386,0h0l-.784-2.927a14.947,14.947,0,0,0,1.932-.516l.784,2.926-1.93.518Zm4.441-1.558h0l-1.514-2.623a15.044,15.044,0,0,0,1.731-1l1.516,2.626-1.732,1Zm-16.267,0h0l-1.732-1,1.516-2.626a15.044,15.044,0,0,0,1.731,1l-1.514,2.623Zm20.155-2.653h0l-2.144-2.144a15.124,15.124,0,0,0,1.414-1.414l2.145,2.145-1.413,1.413Zm-24.042,0h0l-1.413-1.413,2.145-2.145a15.139,15.139,0,0,0,1.414,1.414l-2.144,2.144Zm27.109-3.568h0l-2.625-1.516a15.011,15.011,0,0,0,1-1.732l2.625,1.515-1,1.732Zm-30.176,0h0l-1-1.732,2.625-1.515a15.022,15.022,0,0,0,1,1.732l-2.625,1.516Zm32.216-4.242h0l-2.925-.784a14.96,14.96,0,0,0,.516-1.932l2.928.785-.518,1.93Zm-34.256,0h0l-.517-1.93,2.928-.785a14.928,14.928,0,0,0,.516,1.932l-2.926.784ZM1040,734h-3.033c.021-.328.033-.665.033-1s-.011-.669-.033-1H1040v2Zm-32.967,0H1004v-2h3.033c-.021.326-.033.662-.033,1s.011.667.033,1Zm29.685-3.909h0a14.934,14.934,0,0,0-.516-1.931l2.926-.784.518,1.931-2.927.784Zm-29.436,0h0l-2.927-.784.518-1.931,2.927.784a14.934,14.934,0,0,0-.516,1.931Zm28.182-3.71h0a15.015,15.015,0,0,0-1-1.731l2.626-1.516,1,1.733-2.624,1.515Zm-26.929,0h0l-2.624-1.515,1-1.733,2.626,1.516a15.024,15.024,0,0,0-1,1.731Zm2.174-3.258h0l-2.144-2.144,1.414-1.414,2.145,2.145a15.138,15.138,0,0,0-1.413,1.413Zm22.58,0h0a15.136,15.136,0,0,0-1.413-1.413l2.145-2.145,1.414,1.414-2.144,2.144Zm-19.64-2.586h0l-1.516-2.625,1.732-1,1.515,2.625a15.014,15.014,0,0,0-1.731,1Zm16.7,0h0a15.018,15.018,0,0,0-1.73-1l1.515-2.624,1.733,1-1.516,2.625Zm-13.19-1.739h0l-.784-2.925,1.931-.518.785,2.928a14.947,14.947,0,0,0-1.931.516Zm9.681,0h0a14.921,14.921,0,0,0-1.931-.516l.785-2.928,1.931.518-.784,2.925Zm-3.84-.764h0c-.325-.022-.661-.034-1-.034s-.668.011-1,.033V715h2v3.033Z" fill="#8194a3"/>
          <path id="Gradient_Overlay" data-name="Gradient Overlay" d="M1021,751v-3.033a15.006,15.006,0,0,1-1.908-.249l-.785,2.928-1.931-.518.784-2.926a14.9,14.9,0,0,1-1.778-.737l-1.515,2.624-1.732-1,1.516-2.626a15.075,15.075,0,0,1-1.526-1.172l-2.145,2.145-1.414-1.414,2.145-2.145a15.059,15.059,0,0,1-1.172-1.526l-2.626,1.516-1-1.733,2.625-1.515a14.913,14.913,0,0,1-.737-1.778l-2.927.784-.518-1.931,2.928-.785a15.028,15.028,0,0,1-.249-1.908H1004v-2h3.033a15.018,15.018,0,0,1,.249-1.908l-2.928-.784.518-1.931,2.927.784a14.91,14.91,0,0,1,.737-1.778l-2.624-1.515,1-1.733,2.626,1.516a15.067,15.067,0,0,1,1.172-1.526l-2.145-2.145,1.414-1.414,2.145,2.145a15.066,15.066,0,0,1,1.526-1.173l-1.516-2.626,1.732-1,1.515,2.625a14.925,14.925,0,0,1,1.778-.737l-.784-2.926,1.931-.518.785,2.928a15.006,15.006,0,0,1,1.908-.249V715h2v3.033a15.006,15.006,0,0,1,1.908.249l.785-2.928,1.931.518-.784,2.926a14.923,14.923,0,0,1,1.778.737l1.515-2.624,1.733,1-1.516,2.626a15.081,15.081,0,0,1,1.526,1.173l2.145-2.145,1.414,1.414-2.145,2.145a15.065,15.065,0,0,1,1.172,1.526l2.626-1.516,1,1.733-2.625,1.515a14.911,14.911,0,0,1,.737,1.778l2.926-.784.518,1.931-2.928.784a15,15,0,0,1,.249,1.908H1040v2h-3.033a15.015,15.015,0,0,1-.249,1.908l2.928.785-.518,1.931-2.926-.784a14.907,14.907,0,0,1-.737,1.778l2.625,1.515-1,1.733-2.626-1.516a15.064,15.064,0,0,1-1.172,1.526l2.145,2.145-1.414,1.414-2.145-2.145a15.06,15.06,0,0,1-1.526,1.172l1.516,2.626-1.733,1-1.515-2.624a14.907,14.907,0,0,1-1.778.737l.784,2.926-1.931.518-.785-2.928a15.006,15.006,0,0,1-1.908.249V751Z" opacity="0.33" fill="url(#linear-gradient-8)" style="mix-blend-mode: overlay;isolation: isolate"/>
        </g>
        <g id="Shape_22" data-name="Shape 22">
          <path id="Shape_22-2" data-name="Shape 22" d="M1021,751v-3h2v3Zm16-17v-2h3v2Zm-33,0v-2h3v2Zm17-16v-3h2v3Z" fill="#bb9c66"/>
          <path id="Gradient_Overlay-2" data-name="Gradient Overlay" d="M1021,751v-3h2v3Zm16-17v-2h3v2Zm-33,0v-2h3v2Zm17-16v-3h2v3Z" opacity="0.19" fill="url(#linear-gradient-8)" style="mix-blend-mode: overlay;isolation: isolate"/>
        </g>
        <g id="Ellipse_20" data-name="Ellipse 20" fill="none">
          <path d="M1019,743a3,3,0,1,1,3,3A3,3,0,0,1,1019,743Zm8,0v-1h3v1Zm-13,0v-1h3v1Zm5-18v-1h6v1Z" stroke="none"/>
          <path d="M 1022.000427246094 745.0001220703125 C 1023.10302734375 745.0001220703125 1024.000122070313 744.1030883789063 1024.000122070313 743.0004272460938 C 1024.000122070313 741.8972778320313 1023.10302734375 740.9998168945313 1022.000427246094 740.9998168945313 C 1020.897277832031 740.9998168945313 1019.999816894531 741.8972778320313 1019.999816894531 743.0004272460938 C 1019.999816894531 744.1030883789063 1020.897277832031 745.0001220703125 1022.000427246094 745.0001220703125 M 1022.000427246094 746.0001220703125 C 1020.343505859375 746.0001220703125 1018.999816894531 744.6564331054688 1018.999816894531 743.0004272460938 C 1018.999816894531 741.343505859375 1020.343505859375 739.9998168945313 1022.000427246094 739.9998168945313 C 1023.656433105469 739.9998168945313 1025.000122070313 741.343505859375 1025.000122070313 743.0004272460938 C 1025.000122070313 744.6564331054688 1023.656433105469 746.0001220703125 1022.000427246094 746.0001220703125 Z M 1029.999633789063 743.0004272460938 L 1026.999877929688 743.0004272460938 L 1026.999877929688 741.9996337890625 L 1029.999633789063 741.9996337890625 L 1029.999633789063 743.0004272460938 Z M 1017 743.0004272460938 L 1014.000305175781 743.0004272460938 L 1014.000305175781 741.9996337890625 L 1017 741.9996337890625 L 1017 743.0004272460938 Z M 1025.000122070313 725.0004272460938 L 1018.999816894531 725.0004272460938 L 1018.999816894531 723.9996337890625 L 1025.000122070313 723.9996337890625 L 1025.000122070313 725.0004272460938 Z" stroke="none" fill="#bb9c66"/>
        </g>
      </g>
      <path id="Gradient_Overlay-3" data-name="Gradient Overlay" d="M1003.255,749.543A24.911,24.911,0,0,1,997,733h0a25,25,0,1,1,50,0h0a24.912,24.912,0,0,1-6.255,16.542,19.094,19.094,0,0,1-37.489,0Z" opacity="0.42" fill="url(#linear-gradient)" style="mix-blend-mode: soft-light;isolation: isolate"/>
    </g>
    <g id="Clip-3" data-name="Clip" clip-path="url(#clip-path-3)">
      <g id="watchIcon-4" data-name="watchIcon" transform="translate(986 684)" opacity="0.231" style="mix-blend-mode: overlay;isolation: isolate">
        <rect id="Layer_2" data-name="Layer 2" fill="url(#pattern)"/>
        <g id="watchIcon-5" data-name="watchIcon">
          <g id="watchIcon-6" data-name="watchIcon">
            <g id="Ellipse_16-5" data-name="Ellipse 16">
              <circle id="Ellipse_16-6" data-name="Ellipse 16" cx="22" cy="22" r="22" transform="translate(14 27)" fill="#1c242a"/>
              <g id="Clip-4" data-name="Clip" clip-path="url(#clip-path-4)">
                <circle id="Ellipse_18-2" data-name="Ellipse 18" cx="11" cy="11" r="11" transform="translate(25 25)" fill="#3e4f5b"/>
                <path id="Ellipse_19-2" data-name="Ellipse 19" d="M35,70A25,25,0,0,1,10,45.167a26.009,26.009,0,0,0,50,0A25,25,0,0,1,35,70Z" fill="#3e4f5b" style="mix-blend-mode: multiply;isolation: isolate"/>
              </g>
            </g>
            <g id="Ellipse_11-5" data-name="Ellipse 11">
              <path id="Ellipse_11-6" data-name="Ellipse 11" d="M36,74a24.922,24.922,0,1,1,9.731-1.965A24.844,24.844,0,0,1,36,74Zm0-44A19,19,0,1,0,55,49,19.021,19.021,0,0,0,36,30Z" fill="#bb9c66"/>
              <g id="Clip-5" data-name="Clip" clip-path="url(#clip-path-5)">
                <path id="Shape_20-3" data-name="Shape 20" d="M17,55c-1.319-6.764,3-13,3-13-.166-2.041,20.938-1.972,22-2s14.66,8,13,15S46.951,69,36,69,18.319,61.765,17,55ZM36,26C14.843,26,11,49,11,49V24H61V49S57.157,26,36,26Z" fill="#bb9c66" opacity="0.82" style="mix-blend-mode: screen;isolation: isolate"/>
                <path id="Shape_20-4" data-name="Shape 20" d="M11,74V49s3.843,23,25,23S61,49,61,49V74ZM42,58c-1.063-.028-22.166.041-22-2,0,0-4.318-6.235-3-13s8.049-14,19-14,17.339,7,19,14S43.112,58,42.006,58Z" fill="#bb9c66" opacity="0.82" style="mix-blend-mode: multiply;isolation: isolate"/>
              </g>
            </g>
            <path id="Ellipse_15-3" data-name="Ellipse 15" d="M13.75,40.589h0a23.493,23.493,0,0,1,38.4-7.671,25.007,25.007,0,0,0-38.4,7.672Z" fill="#fff"/>
            <path id="Ellipse_15-4" data-name="Ellipse 15" d="M35.5,70a23.425,23.425,0,0,1-16.649-6.915A25.007,25.007,0,0,0,57.26,55.392,23.507,23.507,0,0,1,35.5,70Z" fill="#fff"/>
            <g transform="matrix(1, 0, 0, 1, 11, 24)" filter="url(#Shape_23-2)">
              <path id="Shape_23-4" data-name="Shape 23" d="M36.339,50.331l-.547-.831L24.151,57.291l.556.831Z" transform="translate(-11 -24)" fill="#b6ccde"/>
            </g>
            <g transform="matrix(1, 0, 0, 1, 11, 24)" filter="url(#Ellipse_17-2)">
              <path id="Ellipse_17-4" data-name="Ellipse 17" d="M33,50c0-.03,0-.06,0-.091L25,47V45l8.644,3.143a3,3,0,0,1,3.918-.7L45,40l2,1-8.129,8.129A3,3,0,1,1,33,50Z" transform="translate(-11 -24)" fill="url(#linear-gradient-7)"/>
            </g>
            <g id="Shape_21-3" data-name="Shape 21" opacity="0.569">
              <path id="Shape_21-4" data-name="Shape 21" d="M37,67H35V63.967c.327.021.663.033,1,.033s.669-.011,1-.033V67Zm2.693-.354h0l-.784-2.927a14.945,14.945,0,0,0,1.933-.517l.784,2.926-1.931.518Zm-7.385,0h0l-1.931-.518.784-2.926a14.942,14.942,0,0,0,1.933.517l-.784,2.927Zm11.827-1.557h0l-1.515-2.624a15.025,15.025,0,0,0,1.731-1l1.516,2.625-1.731,1Zm-16.268,0h0l-1.731-1,1.516-2.625a15.023,15.023,0,0,0,1.731,1l-1.515,2.624ZM48.02,62.435h0L45.876,60.29a15.138,15.138,0,0,0,1.414-1.414l2.145,2.145-1.414,1.413Zm-24.041,0h0l-1.414-1.413,2.145-2.145a15.137,15.137,0,0,0,1.414,1.414L23.98,62.434Zm27.109-3.568h0L48.463,57.35a15.036,15.036,0,0,0,1-1.731l2.624,1.515-1,1.732Zm-30.177,0h0l-1-1.732,2.624-1.515a15.038,15.038,0,0,0,1,1.731l-2.625,1.516Zm32.216-4.242h0L50.2,53.841a14.949,14.949,0,0,0,.516-1.932l2.927.784-.517,1.93Zm-34.256,0h0l-.517-1.93,2.927-.784a14.949,14.949,0,0,0,.516,1.932l-2.925.784ZM54,50H50.967c.022-.327.033-.663.033-1s-.011-.669-.033-1H54v2ZM21.033,50H18V48h3.033c-.021.326-.033.662-.033,1s.011.668.033,1Zm29.686-3.909h0a14.94,14.94,0,0,0-.516-1.931l2.926-.784.518,1.931-2.926.784Zm-29.437,0h0l-2.926-.784.517-1.931,2.926.784a14.937,14.937,0,0,0-.516,1.931Zm28.183-3.71h0a15.041,15.041,0,0,0-1-1.73l2.626-1.516,1,1.732-2.623,1.514Zm-26.929,0h0l-2.623-1.514,1-1.732,2.626,1.516a15.039,15.039,0,0,0-1,1.73ZM47.29,39.124h0a15.142,15.142,0,0,0-1.414-1.413l2.144-2.144,1.415,1.414-2.144,2.144Zm-22.581,0h0l-2.144-2.144,1.415-1.414,2.144,2.144a15.138,15.138,0,0,0-1.414,1.413Zm19.64-2.587h0a15.05,15.05,0,0,0-1.73-1l1.515-2.625,1.732,1L44.35,36.536Zm-16.7,0h0l-1.516-2.625,1.732-1,1.515,2.625a15.034,15.034,0,0,0-1.73,1ZM40.841,34.8h0a14.952,14.952,0,0,0-1.932-.516l.785-2.928,1.932.518L40.841,34.8Zm-9.682,0h0l-.784-2.925,1.932-.518.785,2.928a14.944,14.944,0,0,0-1.932.516ZM35,34.033h0V31h2v3.032c-.332-.021-.668-.032-1-.032s-.668.011-1,.033Z" fill="#8194a3"/>
              <path id="Gradient_Overlay-4" data-name="Gradient Overlay" d="M35,67V63.967a14.993,14.993,0,0,1-1.908-.249l-.785,2.928-1.932-.518.784-2.926a14.917,14.917,0,0,1-1.778-.737l-1.515,2.625-1.732-1,1.516-2.625a15.07,15.07,0,0,1-1.526-1.172L23.98,62.435l-1.415-1.414,2.145-2.145a15.068,15.068,0,0,1-1.172-1.526l-2.626,1.516-1-1.733,2.624-1.515a14.9,14.9,0,0,1-.737-1.778l-2.926.784-.517-1.931,2.927-.784A15,15,0,0,1,21.033,50H18V48h3.033a15.019,15.019,0,0,1,.249-1.909l-2.927-.784.517-1.931,2.926.784a14.9,14.9,0,0,1,.737-1.778l-2.624-1.515,1-1.733,2.626,1.516a15.069,15.069,0,0,1,1.172-1.526l-2.145-2.145,1.415-1.414,2.144,2.144a15.055,15.055,0,0,1,1.526-1.173l-1.516-2.626,1.732-1,1.515,2.625a14.917,14.917,0,0,1,1.778-.737l-.784-2.926,1.932-.518.785,2.928A14.993,14.993,0,0,1,35,34.033V31h2v3.033a15.016,15.016,0,0,1,1.908.249l.785-2.928,1.932.518L40.841,34.8a14.9,14.9,0,0,1,1.778.737l1.515-2.625,1.732,1L44.35,36.537a15.055,15.055,0,0,1,1.526,1.173l2.144-2.144,1.415,1.414L47.29,39.124a15.069,15.069,0,0,1,1.172,1.526l2.626-1.516,1,1.733-2.624,1.515a14.9,14.9,0,0,1,.737,1.778l2.926-.784.517,1.931-2.927.784A15.02,15.02,0,0,1,50.967,48H54v2H50.967a15,15,0,0,1-.249,1.908l2.927.784-.517,1.931L50.2,53.841a14.9,14.9,0,0,1-.737,1.778l2.624,1.515-1,1.733L48.463,57.35a15.068,15.068,0,0,1-1.172,1.526l2.145,2.145L48.02,62.435,45.876,60.29a15.07,15.07,0,0,1-1.526,1.172l1.516,2.625-1.732,1-1.515-2.625a14.917,14.917,0,0,1-1.778.737l.784,2.926-1.932.518-.785-2.928A15.016,15.016,0,0,1,37,63.967V67Z" opacity="0.33" fill="url(#linear-gradient-12)" style="mix-blend-mode: overlay;isolation: isolate"/>
            </g>
            <g id="Shape_22-3" data-name="Shape 22">
              <path id="Shape_22-4" data-name="Shape 22" d="M35,67V64h2v3ZM51,50V48h3v2ZM18,50V48h3v2ZM35,34V31h2v3Z" fill="#bb9c66"/>
              <path id="Gradient_Overlay-5" data-name="Gradient Overlay" d="M35,67V64h2v3ZM51,50V48h3v2ZM18,50V48h3v2ZM35,34V31h2v3Z" opacity="0.19" fill="url(#linear-gradient-12)" style="mix-blend-mode: overlay;isolation: isolate"/>
            </g>
            <g id="Ellipse_20-2" data-name="Ellipse 20" fill="none">
              <path d="M33,59a3,3,0,1,1,3,3A3,3,0,0,1,33,59Zm8,0V58h3v1ZM28,59V58h3v1Zm5-18V40h6v1Z" stroke="none"/>
              <path d="M 36 61.00010299682617 C 37.10263824462891 61.00010299682617 37.99969482421875 60.10304641723633 37.99969482421875 59.00040817260742 C 37.99969482421875 57.89726638793945 37.10263824462891 56.99979400634766 36 56.99979400634766 C 34.89736175537109 56.99979400634766 34.00030517578125 57.89726638793945 34.00030517578125 59.00040817260742 C 34.00030517578125 60.10304641723633 34.89736175537109 61.00010299682617 36 61.00010299682617 M 36 62.00010299682617 C 34.34311294555664 62.00010299682617 33.00030517578125 60.65729522705078 33.00030517578125 59.00040817260742 C 33.00030517578125 57.34349060058594 34.34311294555664 55.99979400634766 36 55.99979400634766 C 37.65688705444336 55.99979400634766 38.99969482421875 57.34349060058594 38.99969482421875 59.00040817260742 C 38.99969482421875 60.65729522705078 37.65688705444336 62.00010299682617 36 62.00010299682617 Z M 44.0001106262207 59.00040817260742 L 41.00038909912109 59.00040817260742 L 41.00038909912109 57.99959945678711 L 44.0001106262207 57.99959945678711 L 44.0001106262207 59.00040817260742 Z M 30.99961090087891 59.00040817260742 L 27.9998893737793 59.00040817260742 L 27.9998893737793 57.99959945678711 L 30.99961090087891 57.99959945678711 L 30.99961090087891 59.00040817260742 Z M 38.99969482421875 41.00040817260742 L 33.00030517578125 41.00040817260742 L 33.00030517578125 39.99959945678711 L 38.99969482421875 39.99959945678711 L 38.99969482421875 41.00040817260742 Z" stroke="none" fill="#bb9c66"/>
            </g>
          </g>
          <path id="Gradient_Overlay-6" data-name="Gradient Overlay" d="M26.269,72.035A25.08,25.08,0,1,1,36,74,24.915,24.915,0,0,1,26.269,72.035Z" opacity="0.42" fill="url(#linear-gradient-5)" style="mix-blend-mode: soft-light;isolation: isolate"/>
        </g>
      </g>
    </g>
  </g>
</svg>
