<svg id="icon1" xmlns="http://www.w3.org/2000/svg" xmlns:xlink="http://www.w3.org/1999/xlink" width="75" height="73.14" viewBox="0 0 75 73.14">
  <defs>
    <clipPath id="clip-path">
      <ellipse id="Ellipse_20" data-name="Ellipse 20" cx="37.5" cy="36.57" rx="37.5" ry="36.57" transform="translate(634 1606)" fill="#1c242a" stroke="#707070" stroke-linejoin="round" stroke-width="3"/>
    </clipPath>
    <linearGradient id="linear-gradient" x1="0.5" y1="1" x2="0.5" gradientUnits="objectBoundingBox">
      <stop offset="0"/>
      <stop offset="0.5" stop-color="#9e9e9e"/>
      <stop offset="0.502" stop-color="#d0d0d0"/>
      <stop offset="1" stop-color="#9e9e9e"/>
    </linearGradient>
  </defs>
  <g id="Ellipse_20-2" data-name="Ellipse 20" transform="translate(-634 -1606)">
    <g id="Ellipse_20-3" data-name="Ellipse 20" transform="translate(634 1606)" fill="#1c242a" stroke="#707070" stroke-linejoin="round" stroke-width="3">
      <ellipse cx="37.5" cy="36.57" rx="37.5" ry="36.57" stroke="none"/>
      <ellipse cx="37.5" cy="36.57" rx="36" ry="35.07" fill="none"/>
    </g>
    <g id="Clip" clip-path="url(#clip-path)">
      <g id="Shape_34" data-name="Shape 34">
        <path id="Shape_34-2" data-name="Shape 34" d="M683,1627v-19H660v19c-4.373,3.5-8,9.761-8,15.717A17.77,17.77,0,0,0,659,1657v20h25v-20a17.775,17.775,0,0,0,7-14.283C691,1636.762,687.373,1630.5,683,1627Zm-.733,26.247a15.472,15.472,0,0,1-21.533,0,14.66,14.66,0,0,1,0-21.058,15.471,15.471,0,0,1,21.533,0,14.66,14.66,0,0,1,0,21.058ZM673,1641v-8h-3v11h14v-3Z" fill="#bb9c66"/>
        <path id="Gradient_Overlay" data-name="Gradient Overlay" d="M683,1627v-19H660v19c-4.373,3.5-8,9.761-8,15.717A17.77,17.77,0,0,0,659,1657v20h25v-20a17.775,17.775,0,0,0,7-14.283C691,1636.762,687.373,1630.5,683,1627Zm-.733,26.247a15.472,15.472,0,0,1-21.533,0,14.66,14.66,0,0,1,0-21.058,15.471,15.471,0,0,1,21.533,0,14.66,14.66,0,0,1,0,21.058ZM673,1641v-8h-3v11h14v-3Z" opacity="0.96" fill="url(#linear-gradient)" style="mix-blend-mode: soft-light;isolation: isolate"/>
      </g>
    </g>
  </g>
</svg>
