<svg xmlns="http://www.w3.org/2000/svg" width="100" height="21.988" viewBox="0 0 100 21.988">
  <g id="Rectangle_25" data-name="Rectangle 25" transform="translate(-622 -1771.006)" fill="none">
    <path d="M661.006,1782,672,1771.006,682.994,1782,672,1792.994ZM697,1782v-1h25v1Zm-75,0v-1h25v1Z" stroke="none"/>
    <path d="M 672.000244140625 1791.579345703125 L 681.5796508789063 1782 L 672.0003051757813 1772.419921875 L 662.420166015625 1782 L 672.000244140625 1791.579345703125 M 672.0003051757813 1792.993530273438 L 661.0059204101563 1782 L 672.0003051757813 1771.005615234375 L 682.9938354492188 1782 L 672.0003051757813 1792.993530273438 Z M 721.9998168945313 1782 L 696.9996337890625 1782 L 696.9996337890625 1781.000122070313 L 721.9998168945313 1781.000122070313 L 721.9998168945313 1782 Z M 647.0001220703125 1782 L 621.9999389648438 1782 L 621.9999389648438 1781.000122070313 L 647.0001220703125 1781.000122070313 L 647.0001220703125 1782 Z" stroke="none" fill="#bb9c66"/>
  </g>
</svg>
